<?xml version="1.0" standalone="no"?>
<!DOCTYPE svg PUBLIC "-//W3C//DTD SVG 20010904//EN"
 "http://www.w3.org/TR/2001/REC-SVG-20010904/DTD/svg10.dtd">
<svg version="1.0" xmlns="http://www.w3.org/2000/svg"
 width="297.000000pt" height="297.000000pt" viewBox="0 0 297.000000 297.000000"
 preserveAspectRatio="xMidYMid meet">
<metadata>
Created by potrace 1.14, written by Peter Selinger 2001-2017
</metadata>
<g transform="translate(0.000000,297.000000) scale(0.100000,-0.100000)"
fill="#000000" stroke="none">
<path d="M1265 2909 c-3 -4 2 -6 10 -5 21 3 28 13 10 13 -9 0 -18 -4 -20 -8z"/>
<path d="M1335 2910 c6 -9 4 -12 -7 -8 -9 4 -15 0 -15 -8 0 -18 11 -18 26 0 9
11 9 16 0 22 -8 5 -9 3 -4 -6z"/>
<path d="M1156 2902 c-2 -4 -1 -14 4 -22 7 -11 9 -9 7 8 -1 24 -3 26 -11 14z"/>
<path d="M1232 2896 c7 -8 15 -12 17 -11 5 6 -10 25 -20 25 -5 0 -4 -6 3 -14z"/>
<path d="M1360 2891 c0 -5 7 -12 16 -15 14 -5 15 -4 4 9 -14 17 -20 19 -20 6z"/>
<path d="M1269 2877 c-8 -7 -30 -12 -51 -11 -21 2 -40 -1 -43 -6 -3 -5 -12 -7
-19 -4 -21 8 -26 -8 -10 -36 7 -14 13 -19 14 -12 0 7 4 11 9 8 4 -3 16 3 26
14 10 11 22 17 26 14 5 -3 9 0 9 6 0 7 6 10 13 7 6 -2 11 -10 10 -16 -4 -15 9
-14 35 5 12 8 22 11 22 6 0 -5 6 -9 13 -10 6 0 21 -2 31 -4 10 -2 21 3 23 10
3 6 -2 12 -11 12 -9 0 -16 5 -16 11 0 8 -5 7 -15 -1 -13 -10 -19 -10 -34 4
-16 14 -21 15 -32 3z m26 -18 c-4 -5 -13 -9 -22 -9 -13 0 -13 3 -3 15 13 15
35 11 25 -6z m-98 -17 c-20 -22 -44 -24 -52 -4 -3 10 0 12 10 9 8 -4 17 -2 20
3 4 6 13 10 22 10 15 0 14 -2 0 -18z m163 8 c8 -5 11 -10 5 -10 -5 0 -17 5
-25 10 -8 5 -10 10 -5 10 6 0 17 -5 25 -10z"/>
<path d="M1076 2872 c-3 -5 1 -9 9 -9 8 0 12 4 9 9 -3 4 -7 8 -9 8 -2 0 -6 -4
-9 -8z"/>
<path d="M1113 2873 c4 -3 2 -12 -3 -19 -8 -8 -6 -16 4 -27 8 -8 12 -17 9 -21
-3 -3 -13 4 -21 16 -14 20 -16 20 -28 3 -9 -12 -10 -23 -4 -35 5 -10 6 -20 3
-24 -3 -3 -1 -6 5 -6 6 0 14 5 17 10 3 6 1 10 -6 10 -9 0 -10 3 -3 10 12 12
64 -6 64 -22 0 -13 -18 -9 -22 4 -3 9 -10 8 -22 -5 -11 -10 -27 -15 -42 -13
-13 3 -26 0 -29 -5 -4 -5 -1 -9 5 -9 6 0 9 -4 5 -9 -3 -5 -1 -12 5 -16 5 -3
10 1 10 9 0 8 8 14 19 13 11 0 17 -5 15 -9 -3 -5 -9 -6 -14 -3 -4 3 -11 -2
-14 -11 -5 -14 -8 -14 -27 0 -15 10 -28 12 -39 6 -10 -5 -21 -6 -25 -2 -4 4
-4 -3 -1 -15 4 -12 2 -24 -4 -28 -5 -3 -15 -15 -21 -27 -10 -18 -8 -19 13 -13
18 5 20 4 8 -4 -13 -9 -8 -15 11 -13 3 1 6 -5 6 -13 0 -9 -8 -7 -28 8 -28 20
-28 27 -1 60 8 9 13 19 10 22 -7 8 -66 -63 -59 -72 3 -4 -1 -2 -9 5 -21 18
-34 15 -19 -5 11 -15 10 -14 -9 1 -23 20 -30 32 -10 20 6 -4 8 -3 5 3 -3 5 0
10 8 10 8 0 15 -4 15 -9 0 -4 8 0 18 10 12 11 15 20 8 25 -7 5 -4 7 7 3 11 -3
16 -2 12 4 -9 15 -38 12 -32 -3 3 -8 -1 -14 -8 -14 -7 0 -11 6 -8 12 2 7 -3
15 -11 18 -10 4 -14 0 -11 -12 4 -20 -31 -56 -40 -41 -3 5 3 13 12 19 15 9 14
10 -7 7 -14 -3 -29 -5 -34 -5 -6 -1 -1 -7 9 -15 18 -13 18 -13 -1 -24 -14 -8
-15 -11 -4 -12 8 0 0 -9 -18 -20 -30 -18 -36 -40 -11 -40 6 0 8 4 5 9 -9 14
20 32 40 25 14 -4 15 -3 5 4 -9 7 -10 12 -2 16 6 4 11 2 11 -4 0 -6 5 -8 11
-4 8 5 8 9 -1 14 -8 5 -8 10 -2 14 5 3 13 -1 16 -10 8 -21 -23 -45 -49 -38
l-20 5 20 -16 c19 -16 19 -16 1 -13 -10 2 -21 -3 -24 -11 -2 -8 0 -11 5 -8 6
4 19 0 29 -9 18 -14 18 -15 -3 -4 -13 6 -23 8 -23 4 0 -4 -9 1 -20 11 -21 19
-28 7 -8 -13 9 -9 9 -12 0 -12 -7 0 -12 5 -12 10 0 6 -6 10 -12 9 -41 -5 -66
3 -76 24 l-10 22 1 -22 c1 -13 5 -23 9 -23 10 0 6 -23 -7 -32 -5 -4 -13 -4
-18 -1 -5 3 -3 9 4 14 7 4 10 12 5 16 -5 4 -11 2 -13 -4 -3 -7 -9 -13 -14 -13
-6 0 -8 4 -5 8 3 5 -1 9 -9 9 -8 0 -15 -4 -15 -9 0 -4 4 -8 10 -8 5 0 2 -9 -7
-20 -17 -19 -18 -19 -26 -3 -6 14 -6 13 -3 -4 2 -13 0 -26 -5 -29 -5 -3 -9 1
-9 8 -1 9 -5 7 -14 -4 -10 -14 -15 -15 -26 -5 -7 7 -10 7 -7 1 4 -6 -4 -16
-18 -22 -15 -7 -25 -7 -29 -1 -2 5 -3 4 -1 -3 3 -13 9 -14 35 -3 11 4 16 -1
17 -15 1 -12 -4 -20 -13 -20 -9 0 -12 5 -8 13 5 9 4 9 -6 0 -11 -10 -18 -9
-34 5 -12 10 -16 12 -11 3 6 -11 4 -13 -11 -8 -16 6 -17 5 -4 -5 16 -14 20
-45 7 -65 -4 -7 0 -16 10 -22 10 -5 14 -13 10 -17 -4 -4 -14 2 -23 14 -8 12
-20 22 -26 22 -6 0 -5 -7 3 -17 10 -11 10 -14 2 -9 -7 4 -13 2 -13 -3 0 -6 8
-11 17 -11 11 0 3 -8 -17 -19 -19 -10 -40 -16 -47 -14 -7 3 -10 -3 -9 -14 2
-10 1 -12 -1 -5 -3 7 -10 9 -16 5 -9 -5 -9 -3 -1 8 16 21 26 51 13 44 -6 -4
-8 2 -6 17 2 12 2 17 0 10 -3 -7 -9 -10 -14 -7 -5 4 -6 -2 -2 -12 6 -16 5 -17
-13 -3 -15 11 -16 11 -7 0 17 -18 17 -36 0 -22 -8 7 -18 6 -31 -4 -11 -8 -15
-14 -10 -14 6 0 15 5 21 11 8 8 14 5 23 -10 6 -12 8 -26 5 -32 -4 -5 -1 -18 7
-27 11 -15 11 -15 -3 -5 -9 7 -18 10 -22 7 -3 -3 -10 4 -17 15 -7 14 -7 21 0
21 5 0 10 -8 10 -17 1 -17 1 -17 11 0 11 19 3 41 -12 32 -5 -4 -18 -8 -30 -10
-29 -6 -50 -25 -47 -43 2 -8 -3 -17 -10 -19 -6 -3 -10 1 -9 9 2 7 2 10 0 6 -3
-4 -4 -10 -3 -14 1 -4 -4 -11 -12 -16 -8 -6 -5 -7 12 -2 22 6 23 5 12 -9 -8
-9 -19 -14 -25 -11 -7 2 -18 -6 -26 -18 -13 -22 -13 -23 6 -5 11 9 23 14 26
10 4 -3 -2 -12 -13 -20 -11 -8 -20 -20 -20 -26 0 -7 7 -4 14 6 13 17 32 25 22
9 -2 -4 0 -14 6 -22 8 -12 8 -11 3 5 -5 16 -4 17 6 8 10 -10 9 -15 -1 -28 -15
-18 0 -21 18 -3 17 17 32 -2 21 -27 -9 -18 -9 -18 -5 3 5 26 -6 29 -24 7 -11
-13 -15 -13 -22 -3 -7 10 -9 10 -5 -2 2 -8 11 -14 20 -14 9 1 13 -4 10 -13 -5
-12 -8 -12 -23 2 -9 8 -19 13 -21 10 -3 -2 -5 4 -5 15 0 10 4 17 7 14 4 -2 10
0 13 5 12 19 -11 20 -38 2 -23 -15 -25 -19 -11 -25 11 -4 15 -12 11 -22 -4 -9
-1 -23 5 -30 16 -19 -1 -17 -23 3 -10 9 -18 13 -18 10 0 -3 10 -15 22 -27 17
-16 18 -20 6 -20 -9 0 -19 -7 -22 -16 -9 -24 -7 -31 5 -11 5 9 15 17 21 17 6
0 5 -6 -3 -16 -10 -13 -10 -17 2 -25 11 -7 11 -9 0 -9 -7 0 -11 -6 -8 -13 7
-18 -23 -78 -34 -71 -5 3 -9 0 -9 -5 0 -16 20 -13 26 4 4 8 10 12 16 9 5 -3 2
-14 -8 -25 -9 -10 -22 -16 -28 -12 -6 4 -5 0 2 -9 9 -11 9 -18 2 -21 -6 -3 -5
-4 2 -3 7 2 12 9 11 15 -2 6 2 11 7 11 6 0 10 -4 10 -10 0 -5 4 -10 8 -10 5 0
9 7 9 15 0 8 -4 12 -9 9 -4 -3 -8 0 -8 6 0 7 6 10 14 7 9 -4 12 2 10 19 -1 13
2 24 7 24 6 0 7 5 3 11 -4 8 -9 7 -16 -2 -7 -10 -8 -8 -3 6 4 11 9 43 11 70 6
79 6 78 29 53 14 -15 18 -26 12 -30 -6 -4 -15 -4 -19 -2 -4 3 -8 -2 -8 -10 0
-21 17 -29 24 -11 3 8 10 15 16 15 5 0 2 -9 -7 -19 -9 -11 -20 -18 -25 -15 -4
3 -8 -4 -8 -15 0 -11 5 -23 10 -26 8 -5 8 -11 0 -20 -8 -9 -8 -15 0 -20 6 -3
8 -10 5 -15 -3 -4 1 -10 8 -13 15 -6 16 -42 2 -54 -4 -5 -4 -2 0 6 6 11 4 13
-8 8 -9 -3 -16 -3 -16 1 3 18 -2 35 -8 28 -14 -14 -11 -37 7 -46 10 -6 18 -19
17 -29 0 -11 -4 -18 -8 -15 -4 2 -10 0 -14 -6 -3 -6 4 -10 17 -11 l23 0 -24
-10 c-23 -9 -24 -10 -5 -24 19 -15 18 -16 -5 -35 -12 -11 -28 -17 -34 -13 -6
4 -8 0 -4 -11 4 -10 3 -15 -3 -11 -12 7 -13 -5 -2 -20 7 -10 26 -17 47 -18 6
0 12 -10 12 -21 2 -19 1 -19 -8 -3 -6 9 -14 17 -20 17 -5 0 -2 -12 7 -27 13
-23 10 -21 -15 7 -17 19 -31 30 -31 23 0 -6 5 -15 10 -18 6 -4 8 -11 4 -16
-10 -17 -22 0 -19 27 1 15 -3 28 -12 31 -12 5 -11 8 2 23 8 9 12 20 8 25 -5 4
-2 5 6 0 9 -5 12 -4 7 3 -3 6 -2 13 3 16 5 4 12 2 16 -3 6 -11 35 -3 35 9 0 5
-8 9 -18 9 -9 0 -33 2 -52 5 -30 5 -32 4 -11 -4 23 -10 24 -11 5 -25 -12 -9
-14 -14 -6 -15 7 0 10 -5 7 -10 -4 -6 -10 -8 -15 -5 -9 6 -6 -28 5 -45 11 -19
16 -62 6 -56 -15 10 -23 -12 -11 -33 7 -14 7 -22 -1 -26 -6 -4 -8 -13 -5 -21
3 -7 1 -16 -5 -20 -6 -4 -6 -11 2 -20 9 -11 9 -14 0 -14 -9 0 -9 -5 -1 -20 8
-15 8 -20 -2 -20 -9 0 -9 -3 2 -10 13 -9 13 -11 0 -20 -9 -5 -10 -10 -3 -10 6
0 10 -8 8 -17 -2 -10 -4 -18 -5 -18 -1 0 -3 -7 -5 -16 -2 -10 7 -21 22 -28 19
-9 24 -9 20 1 -2 7 -10 12 -16 10 -6 -1 -11 2 -11 8 0 13 17 13 25 0 4 -6 11
-8 16 -5 5 4 4 -5 -3 -19 -6 -14 -18 -26 -26 -26 -8 0 -12 -6 -9 -15 4 -8 2
-17 -3 -20 -4 -3 -10 1 -13 7 -2 7 -3 -12 -3 -44 1 -31 4 -54 9 -51 10 6 9 -9
-3 -27 -5 -8 -5 -19 -1 -25 11 -13 10 -45 -1 -45 -5 0 -2 -10 7 -23 8 -13 12
-27 8 -32 -5 -4 -2 -4 6 0 11 6 13 4 8 -9 -5 -14 -3 -15 13 -6 11 6 21 6 24 1
3 -5 -3 -11 -14 -14 -11 -3 -20 -11 -19 -19 0 -10 2 -10 6 0 2 6 12 12 21 11
11 0 12 -2 5 -6 -7 -2 -13 -9 -13 -15 0 -7 5 -7 13 1 14 11 27 5 27 -11 0 -5
-6 -6 -12 -2 -10 6 -10 5 -1 -8 7 -8 9 -19 5 -24 -4 -4 0 -3 8 3 13 10 18 8
28 -7 6 -11 8 -22 3 -25 -5 -3 -11 1 -14 7 -2 7 -8 9 -13 5 -5 -4 -2 -12 6
-17 16 -10 43 7 34 21 -3 5 -1 9 3 9 5 0 14 -10 22 -21 11 -19 11 -21 -3 -16
-8 3 -18 1 -22 -6 -4 -7 -4 -9 1 -5 4 4 17 2 28 -3 15 -8 22 -8 28 2 5 8 9 11
10 7 6 -32 2 -55 -11 -66 -12 -10 -10 -10 12 -1 26 11 31 30 16 54 -3 6 1 16
9 24 13 12 14 11 8 -10 -7 -21 -6 -22 8 -10 14 11 18 11 23 -3 3 -9 11 -13 18
-9 6 3 6 1 -2 -8 -21 -23 -13 -30 14 -13 19 13 22 19 12 25 -9 6 -9 9 -1 9 24
0 22 -19 -4 -38 -35 -24 -53 -19 -47 15 4 23 3 25 -11 13 -11 -9 -13 -15 -5
-20 16 -10 12 -23 -12 -36 -18 -10 -18 -12 -4 -17 10 -4 30 0 47 8 16 9 29 12
29 8 0 -5 4 -3 8 4 5 8 12 8 26 -3 11 -8 14 -14 7 -14 -9 0 -8 -5 3 -16 9 -8
13 -21 9 -27 -4 -6 0 -8 10 -4 11 4 14 2 10 -9 -4 -11 -9 -12 -18 -4 -9 7 -15
8 -19 1 -4 -6 -13 -8 -20 -5 -8 3 -17 0 -22 -7 -4 -8 -3 -10 5 -5 6 4 19 2 27
-5 13 -10 17 -10 25 2 9 15 11 12 13 -20 0 -11 5 -23 10 -28 5 -5 6 -3 2 5 -4
6 -2 12 5 12 6 0 9 -8 6 -19 -3 -12 1 -18 11 -17 8 0 17 -6 19 -14 4 -12 3
-12 -5 -1 -7 9 -12 10 -16 2 -4 -6 -2 -11 4 -11 6 0 8 -5 4 -12 -5 -7 -3 -8 6
-3 10 6 12 4 7 -8 -4 -11 -1 -15 12 -12 27 5 61 -22 55 -43 -4 -10 -2 -13 3
-7 7 10 17 11 41 6 4 -1 -4 -8 -17 -15 -15 -8 -20 -16 -12 -20 6 -4 11 -3 11
2 0 5 11 9 25 9 21 0 23 -2 14 -13 -10 -12 -8 -13 7 -8 18 7 18 6 -1 -16 l-20
-23 33 23 c35 26 40 32 18 24 -13 -5 -33 30 -28 49 1 5 -2 6 -8 2 -6 -3 -7
-11 -4 -17 4 -7 2 -8 -5 -4 -6 4 -8 12 -5 18 5 7 2 8 -7 3 -8 -5 -11 -4 -6 0
12 14 47 16 47 4 0 -8 4 -8 14 0 8 7 23 13 34 16 16 3 19 -1 14 -18 -5 -18 -7
-19 -10 -5 -3 15 -7 16 -23 7 -19 -9 -19 -12 -6 -33 10 -15 12 -28 6 -38 -13
-23 -1 -48 19 -40 15 5 16 4 2 -13 -9 -11 -10 -16 -3 -11 7 4 13 3 13 -3 0 -5
-3 -11 -7 -14 -5 -2 -2 -2 4 -1 7 2 19 -9 27 -24 9 -15 15 -21 16 -14 0 7 5
10 12 6 7 -4 8 -3 4 5 -4 6 -11 9 -16 6 -4 -3 -11 2 -14 11 -9 24 -7 29 6 16
15 -15 42 -16 33 -2 -4 6 -11 7 -17 4 -7 -5 -8 -2 -3 6 6 9 4 11 -6 5 -11 -7
-11 -5 1 11 14 19 14 19 -7 0 -22 -18 -22 -18 -18 3 2 12 0 19 -5 16 -6 -3 -8
0 -7 7 2 7 2 10 0 6 -7 -12 -33 -9 -33 3 0 5 4 8 8 5 4 -2 9 6 10 19 1 13 -3
27 -8 30 -6 3 -10 12 -10 18 0 7 5 4 11 -6 8 -14 14 -16 25 -6 9 7 14 8 14 1
0 -6 -6 -12 -12 -15 -17 -6 14 -62 34 -62 7 0 22 -5 33 -12 29 -16 37 -16 47
-1 8 10 9 10 5 -2 -2 -8 -10 -14 -16 -12 -12 2 -15 -11 -4 -21 3 -4 12 -2 20
4 23 19 14 -2 -9 -22 -21 -19 -21 -20 -3 -15 23 6 60 -18 51 -33 -4 -6 5 -9
24 -6 33 4 38 -5 15 -28 -8 -8 -11 -17 -8 -21 4 -3 1 -6 -5 -6 -7 0 -12 5 -12
10 0 6 -3 9 -7 9 -21 -3 -33 2 -27 12 4 8 9 7 15 -2 5 -8 9 -9 9 -3 0 6 -7 17
-15 24 -8 7 -12 16 -9 21 3 5 0 9 -6 9 -7 0 -10 -6 -7 -13 3 -8 -1 -14 -8 -14
-8 0 -11 7 -7 15 4 11 1 14 -12 9 -10 -4 -15 -3 -11 3 6 10 -34 5 -44 -6 -3
-4 2 -4 11 -1 10 3 20 2 23 -2 2 -5 -7 -12 -21 -15 -15 -4 -24 -9 -22 -12 3
-2 17 0 31 5 21 8 28 7 36 -7 7 -11 11 -12 11 -4 0 7 5 10 10 7 8 -5 7 -12 -2
-23 -10 -12 -10 -14 0 -8 7 4 12 2 12 -4 0 -6 4 -8 10 -5 9 6 14 -8 11 -28 -1
-5 8 -11 19 -14 17 -5 18 -8 8 -22 -11 -14 -11 -14 3 -4 12 10 18 10 27 1 7
-7 12 -8 12 -2 0 5 5 2 11 -6 8 -11 9 -9 3 10 -6 22 -5 23 9 12 9 -8 14 -19
11 -27 -3 -7 0 -16 6 -20 6 -4 11 -1 9 6 -3 27 1 40 11 34 6 -4 8 -10 5 -15
-3 -5 0 -12 6 -16 8 -4 7 -9 -2 -16 -10 -7 -8 -8 6 -3 33 11 40 11 37 -2 -1
-7 2 -13 8 -13 13 0 13 13 -1 27 -8 8 -5 13 11 18 17 5 19 10 9 21 -8 10 -9
18 0 27 6 8 7 18 3 22 -4 5 8 -2 26 -14 21 -14 31 -29 28 -38 -3 -8 -2 -11 3
-8 5 3 12 1 16 -5 3 -5 2 -10 -4 -10 -5 0 -17 -3 -27 -7 -11 -4 -15 -3 -10 5
3 6 1 14 -5 18 -7 4 -9 3 -5 -4 3 -6 1 -14 -5 -18 -8 -5 -9 -3 -4 6 5 9 4 11
-3 6 -16 -10 -15 -29 1 -23 18 6 49 -12 41 -25 -4 -7 -2 -8 5 -4 9 6 9 11 -1
24 -11 14 -10 15 5 9 10 -4 21 -7 23 -7 3 0 2 -6 -2 -12 -4 -8 -3 -10 2 -5 5
5 10 13 10 18 3 22 5 23 14 9 8 -12 9 -10 7 8 -4 29 -22 48 -31 33 -4 -6 0
-11 9 -11 9 0 13 -5 10 -10 -5 -8 -11 -7 -21 1 -7 6 -12 15 -9 19 3 4 -2 13
-10 20 -8 7 -15 17 -15 22 0 6 9 0 20 -13 10 -13 19 -19 20 -13 0 5 -5 15 -10
20 -7 7 -6 11 4 11 8 0 13 -3 11 -7 -2 -4 2 -15 9 -25 9 -13 15 -15 20 -7 4 7
2 12 -3 12 -6 0 -11 5 -11 10 0 6 11 3 24 -5 21 -14 24 -14 29 0 4 8 14 15 23
15 10 0 14 3 10 7 -4 4 -15 8 -23 8 -9 0 -17 8 -19 18 -1 9 2 15 7 11 5 -3 6
-10 3 -16 -5 -8 -1 -9 10 -5 10 4 23 -1 33 -12 13 -16 20 -17 36 -8 15 9 21 9
24 -1 3 -6 9 -9 14 -6 6 3 5 11 -2 20 -8 10 -8 14 0 14 6 0 11 -5 11 -11 0 -5
4 -7 10 -4 5 3 10 1 10 -5 0 -6 5 -8 13 -4 9 6 9 5 0 -7 -10 -12 -8 -17 8 -27
10 -7 19 -17 19 -23 0 -5 -4 -7 -10 -4 -5 3 -10 2 -10 -3 0 -5 15 -9 34 -8 24
1 32 5 28 15 -4 10 -1 12 8 6 8 -5 11 -4 7 2 -4 6 1 17 10 24 14 12 15 11 9
-11 -6 -19 -5 -21 3 -10 9 13 11 12 12 -5 1 -16 2 -15 8 5 5 19 13 24 32 22
13 -2 33 -3 44 -2 11 0 39 1 63 2 38 1 47 8 43 31 -1 5 4 7 11 4 7 -2 12 -11
10 -20 -1 -8 2 -18 8 -22 6 -4 7 1 3 11 -5 12 -3 15 6 9 8 -4 17 -2 22 6 8 12
11 12 20 -1 8 -12 9 -11 4 7 -4 15 -2 21 9 19 18 -3 34 -16 19 -16 -6 0 -13
-10 -16 -23 -6 -21 -6 -21 13 3 10 14 22 21 26 17 4 -4 16 0 26 10 19 17 26 5
7 -14 -8 -8 -7 -13 2 -18 7 -5 10 -4 5 3 -3 6 2 16 13 21 26 14 31 14 27 -1
-1 -7 -1 -10 1 -5 3 4 12 7 21 8 14 0 13 2 -3 9 -11 5 -18 9 -15 10 23 7 40 7
40 0 0 -4 8 -11 17 -14 15 -6 15 -4 -2 14 -10 11 -13 20 -7 20 6 0 17 -9 25
-20 11 -17 16 -18 20 -7 6 16 -47 86 -58 76 -3 -4 3 -16 14 -26 21 -19 21 -19
-14 -18 -21 1 -32 -2 -28 -8 4 -6 1 -7 -7 -2 -9 6 -11 4 -5 -5 5 -9 4 -11 -3
-6 -7 4 -12 2 -12 -4 0 -6 -4 -8 -10 -5 -14 8 -13 26 1 23 6 -2 14 3 17 11 3
8 0 11 -7 7 -7 -5 -9 -1 -5 8 3 9 10 17 15 17 20 3 24 5 37 13 8 5 20 2 31 -8
17 -15 19 -15 24 -1 4 8 12 15 19 14 10 0 10 -2 1 -6 -18 -7 -16 -20 2 -20 8
0 15 5 15 10 0 5 7 6 16 3 17 -7 54 19 54 37 0 6 -8 3 -18 -6 -10 -10 -22 -17
-26 -17 -5 0 2 9 15 19 31 25 50 10 24 -19 -10 -11 -14 -20 -9 -20 13 1 45 26
39 31 -2 3 5 5 16 6 15 1 19 -3 14 -18 -4 -11 -2 -19 5 -19 6 0 8 -5 4 -11 -5
-8 -10 -6 -16 5 -5 9 -6 21 -2 28 5 7 3 8 -5 4 -7 -5 -10 -14 -7 -21 3 -8 -2
-12 -12 -10 -9 1 -21 -1 -27 -5 -14 -10 -45 -9 -45 2 0 5 -5 6 -11 2 -8 -4 -7
-9 2 -15 10 -6 10 -9 2 -9 -6 0 -15 5 -18 10 -4 6 -10 8 -15 5 -11 -6 10 -45
23 -45 4 0 5 5 2 11 -4 6 -1 9 6 8 8 -2 24 2 37 9 16 9 22 10 22 1 0 -6 6 -9
14 -6 7 3 20 0 27 -6 11 -10 10 -9 0 6 -12 15 -11 17 10 14 16 -3 24 -11 24
-25 0 -11 3 -23 6 -26 9 -9 5 37 -4 52 -10 15 16 27 34 16 7 -4 9 -3 6 4 -9
13 2 44 14 37 4 -3 5 -13 2 -23 -3 -9 -3 -14 1 -10 4 3 9 14 10 25 2 10 14 23
27 30 14 7 34 22 45 34 10 13 13 19 7 15 -7 -4 -13 -3 -13 2 0 5 8 12 18 14
22 6 26 44 6 52 -10 4 -12 2 -8 -6 5 -7 3 -8 -6 -3 -9 6 -11 4 -5 -5 5 -8 4
-11 -3 -6 -7 4 -10 -1 -7 -14 3 -13 0 -18 -7 -14 -7 5 -8 2 -3 -6 6 -9 4 -11
-5 -5 -8 5 -11 4 -7 -2 3 -5 0 -10 -8 -10 -20 0 -19 7 2 22 16 12 15 13 -10
12 -31 -2 -32 -5 -13 -33 10 -13 11 -25 5 -35 -7 -12 -9 -12 -9 1 0 13 -1 13
-10 0 -9 -13 -10 -13 -10 0 0 13 -2 13 -9 0 -6 -8 -7 -18 -4 -24 3 -5 1 -6 -4
-3 -6 4 -10 -1 -9 -10 0 -10 -7 -17 -21 -18 -14 -1 -19 3 -16 12 6 14 19 17
26 6 2 -5 3 -3 1 3 -1 6 3 17 9 23 8 8 8 11 0 11 -7 0 -15 -4 -18 -10 -3 -5
-14 -10 -23 -10 -9 1 1 9 23 20 22 10 43 16 47 14 3 -2 9 0 13 6 3 5 2 10 -3
10 -4 0 -8 16 -8 35 1 31 3 33 13 19 11 -16 14 -16 38 0 31 20 27 33 -4 16
-17 -9 -22 -8 -27 5 -3 8 -10 13 -14 10 -4 -3 -14 3 -21 13 -11 14 -11 15 1 5
10 -10 16 -9 25 4 10 13 14 13 20 3 6 -9 4 -11 -5 -5 -10 6 -12 4 -7 -9 4 -10
7 -19 7 -22 0 -2 7 -1 15 2 8 4 12 10 9 15 -3 5 -1 9 5 9 5 0 12 -4 16 -9 3
-6 14 -8 25 -6 11 2 24 -4 30 -13 8 -13 10 -14 9 -2 -3 29 1 41 11 35 6 -4 8
-11 5 -16 -4 -5 -1 -9 4 -9 16 0 13 16 -4 30 -9 7 -14 18 -12 24 2 6 -3 22
-13 36 -30 45 -34 54 -20 45 9 -6 12 -4 8 6 -4 10 1 15 13 16 10 1 19 -3 19
-8 0 -6 -5 -7 -12 -3 -8 5 -9 2 -5 -10 5 -11 3 -15 -4 -10 -7 4 -10 1 -7 -7 3
-8 10 -15 16 -15 7 -1 19 -2 28 -3 8 0 12 -6 9 -11 -5 -8 -11 -7 -21 1 -8 7
-14 7 -14 1 0 -5 7 -12 15 -16 9 -3 12 -12 8 -23 -3 -10 -3 -15 2 -11 4 4 13
3 20 -2 8 -7 12 -5 12 5 0 8 -4 12 -8 10 -4 -3 -9 2 -13 10 -3 8 3 19 12 24
11 7 12 11 4 11 -7 0 -10 5 -6 11 4 8 9 8 17 0 6 -6 15 -11 21 -11 5 0 1 7
-10 16 -14 11 -15 14 -3 11 9 -3 22 -1 29 3 12 7 -19 8 -75 1 -5 -1 -3 -6 5
-11 8 -5 10 -10 4 -10 -6 0 -13 3 -17 6 -9 9 4 35 14 28 5 -3 9 -1 9 5 0 5 15
8 33 6 22 -3 28 -2 17 5 -8 5 -12 12 -8 15 3 3 12 -1 20 -8 13 -13 16 -13 26
4 11 18 -1 39 -15 25 -4 -3 -1 -6 6 -6 7 0 10 -4 6 -10 -3 -5 -12 -7 -21 -3
-8 3 -12 8 -10 11 7 6 -13 32 -25 32 -5 0 -9 -5 -9 -11 0 -5 4 -8 8 -5 14 8
10 -19 -4 -31 -9 -9 -14 -9 -18 3 -7 18 10 54 25 54 6 0 8 4 4 10 -3 5 -13 7
-23 4 -14 -5 -14 -3 2 6 14 10 20 10 27 -1 4 -7 5 -17 3 -21 -3 -4 -2 -8 3 -9
29 -2 47 -10 63 -24 12 -11 20 -13 25 -5 3 6 3 9 -2 8 -12 -4 -54 28 -46 35 3
4 12 2 20 -4 18 -16 17 -1 -2 17 -19 20 -19 35 0 28 8 -4 12 -11 8 -17 -3 -5
-2 -7 4 -4 15 10 10 50 -7 54 -13 4 -13 3 0 -6 8 -5 11 -13 7 -18 -5 -4 -12
-1 -16 6 -7 11 -10 11 -17 0 -12 -20 -14 -40 -3 -33 5 3 9 1 9 -5 0 -20 -19
-21 -30 -2 -8 17 -5 25 17 46 29 26 26 32 -8 15 -15 -8 -21 -7 -25 5 -3 8 -10
13 -14 10 -5 -3 -11 -1 -14 4 -4 5 1 8 10 7 8 -1 19 -8 23 -15 6 -10 12 -9 25
4 9 9 16 13 16 8 0 -4 5 -1 10 7 7 11 5 19 -7 28 -15 10 -12 12 15 8 25 -3 37
2 53 23 11 14 18 21 15 14 -9 -17 13 -27 29 -13 11 10 15 10 15 1 0 -7 5 -9
10 -6 12 7 14 26 3 24 -21 -3 -34 2 -28 11 4 6 11 8 16 5 5 -3 6 1 3 9 -4 10
0 14 12 12 10 -2 20 -9 22 -16 3 -8 0 -10 -8 -5 -8 5 -11 4 -6 -3 4 -6 13 -9
21 -6 11 5 12 10 2 25 -6 10 -15 19 -20 19 -4 0 -5 5 -1 12 5 8 11 6 19 -5 11
-15 13 -14 24 9 8 18 17 24 27 20 15 -6 15 -4 1 18 -9 13 -13 27 -9 30 3 4 12
-4 19 -16 9 -18 12 -19 13 -6 0 9 -5 20 -10 23 -6 4 -7 11 -4 17 4 6 12 1 20
-13 13 -24 13 -24 10 6 -2 17 2 36 10 43 8 7 14 9 14 3 0 -5 6 -11 14 -14 11
-4 13 1 10 19 -4 19 -1 24 8 18 23 -15 37 -13 31 4 -5 11 -3 13 8 7 8 -4 11
-5 7 0 -4 4 -3 14 3 22 9 9 8 13 0 13 -6 0 -11 5 -11 11 0 5 4 7 10 4 13 -8
52 14 45 26 -4 5 -12 9 -18 9 -7 0 -6 -4 3 -11 12 -8 10 -9 -7 -4 -12 3 -24 1
-28 -5 -3 -6 -11 -8 -16 -5 -5 3 -6 -1 -3 -9 4 -10 1 -16 -7 -16 -7 0 -9 3 -6
6 3 4 2 16 -4 27 -8 14 -8 18 0 13 6 -4 17 -4 24 1 12 7 17 9 49 11 15 2 17
28 15 306 -1 167 -5 302 -9 300 -11 -7 -10 4 2 25 8 15 5 18 -15 15 -14 -1
-25 3 -25 8 0 6 -9 3 -20 -7 -20 -18 -29 -8 -10 11 6 6 6 15 -1 24 -8 12 -9
12 -7 -4 2 -10 -3 -21 -10 -23 -7 -3 -12 -1 -11 4 4 22 -2 35 -16 30 -8 -4
-17 -2 -20 3 -4 6 -1 10 4 10 6 0 11 5 11 10 0 6 -3 9 -7 9 -21 -3 -32 3 -38
22 -4 12 -13 18 -20 15 -8 -3 -19 2 -26 10 -10 13 -8 14 15 10 16 -3 24 -1 20
5 -3 6 -8 8 -11 5 -11 -10 -42 14 -37 29 3 7 1 22 -4 31 -9 16 -10 15 -16 -4
-4 -12 -14 -22 -22 -22 -8 0 -14 -5 -14 -10 0 -16 24 -7 37 15 10 17 12 17 13
3 0 -9 -4 -20 -10 -23 -5 -3 -10 -12 -10 -18 0 -8 3 -8 9 2 6 9 11 10 15 2 4
-6 1 -11 -6 -11 -9 0 -9 -3 2 -10 8 -5 11 -10 6 -10 -5 0 -3 -6 3 -14 9 -11 9
-16 1 -21 -7 -4 -18 3 -27 14 -13 19 -17 20 -31 9 -15 -12 -16 -11 -3 5 10 13
17 15 27 6 18 -14 18 0 0 23 -7 10 -16 15 -19 12 -3 -4 -11 5 -18 19 -6 14
-17 23 -24 21 -7 -3 -15 -1 -19 4 -3 5 5 8 17 7 12 -1 28 2 35 8 7 6 12 6 11
1 -5 -26 3 -26 16 0 19 36 19 45 0 20 -13 -18 -14 -17 -10 13 2 18 7 38 11 44
4 8 3 9 -4 5 -7 -4 -17 3 -24 19 -9 20 -17 25 -32 20 -12 -4 -27 -7 -33 -7 -7
-1 -13 -7 -13 -15 0 -16 12 -17 26 -3 8 8 15 6 24 -5 7 -9 8 -15 2 -15 -6 0
-12 5 -14 12 -3 9 -6 9 -12 0 -4 -7 -2 -12 4 -12 6 0 8 -4 5 -10 -3 -5 0 -7 9
-4 10 4 14 0 13 -15 -1 -12 -5 -21 -10 -21 -4 0 -5 -4 -2 -10 3 -5 1 -10 -5
-10 -7 0 -9 7 -6 16 6 16 -17 58 -26 48 -4 -3 -9 4 -13 16 -4 12 -16 25 -28
30 -16 6 -17 9 -6 9 9 1 22 8 29 16 10 12 9 16 -4 21 -9 3 -13 10 -10 15 3 5
1 9 -4 9 -17 0 -22 -28 -6 -33 10 -4 9 -5 -2 -3 -23 2 -26 34 -5 41 10 3 18
12 18 20 0 19 -13 19 -21 0 -3 -8 -11 -15 -18 -15 -9 0 -8 3 2 10 13 9 7 14
-12 11 -5 0 -8 4 -8 10 0 6 9 8 21 4 18 -6 19 -5 7 14 -8 13 -16 17 -22 11 -6
-6 -15 -10 -21 -10 -5 0 -2 5 7 11 10 5 15 16 12 24 -4 8 -1 15 5 15 6 0 10
-5 8 -11 -1 -6 4 -14 12 -17 8 -2 11 0 8 5 -8 12 10 39 20 30 4 -5 3 -11 -3
-15 -6 -4 -10 -15 -8 -25 1 -10 -2 -14 -8 -11 -7 4 -8 2 -4 -5 4 -6 12 -9 17
-6 5 4 9 1 9 -5 0 -6 4 -9 8 -6 4 2 14 0 22 -6 12 -8 12 -9 -2 -5 -12 4 -16 1
-13 -14 2 -11 0 -17 -5 -14 -6 4 -7 -2 -3 -11 4 -11 8 -13 11 -6 2 7 8 9 14 6
6 -4 5 -10 -3 -15 -12 -7 -12 -9 0 -9 8 0 4 -8 -10 -20 -13 -10 -19 -19 -12
-20 6 0 15 5 18 10 4 6 10 8 13 6 4 -2 18 1 31 8 20 11 21 14 7 19 -10 4 -15
3 -11 -3 7 -11 -8 -14 -19 -3 -4 4 3 15 16 25 18 15 19 17 4 11 -15 -5 -17 -3
-11 8 7 12 6 12 -7 1 -10 -8 -19 -9 -22 -4 -3 6 1 12 9 16 8 3 12 12 9 21 -3
8 -11 12 -17 8 -6 -4 -8 4 -3 23 l6 29 -15 -25 c-13 -23 -21 -20 -15 5 9 38 7
53 -6 48 -16 -6 -15 17 1 30 6 5 3 7 -7 3 -10 -3 -18 -1 -18 4 0 16 21 22 36
9 12 -10 13 -9 8 5 -7 18 -29 21 -39 5 -4 -6 -14 -8 -22 -5 -9 4 -11 2 -6 -7
12 -19 12 -38 1 -31 -7 4 -8 2 -4 -5 4 -6 11 -9 16 -6 5 3 11 1 15 -5 3 -5 -3
-10 -14 -10 -19 0 -26 10 -22 33 2 10 -17 9 -24 -2 -3 -5 -1 -12 5 -16 5 -3
10 -14 10 -23 0 -9 -8 -1 -19 18 -11 19 -24 34 -31 32 -6 -1 -9 2 -5 8 5 8 11
8 20 0 14 -12 48 -3 39 11 -3 5 7 14 22 19 15 6 24 13 21 16 -3 3 -15 0 -27
-6 -16 -9 -25 -9 -36 1 -17 14 -19 -2 -2 -19 7 -7 8 -12 2 -12 -13 0 -36 48
-29 60 3 5 12 7 20 4 8 -4 13 -10 10 -14 -3 -5 -1 -11 5 -15 6 -3 13 1 16 9 3
9 10 13 15 10 5 -3 9 0 9 6 0 7 -8 9 -22 4 -20 -6 -21 -5 -9 10 7 9 10 16 5
16 -5 0 0 7 10 15 11 8 16 15 10 15 -17 0 -35 -17 -32 -30 2 -7 -3 -15 -11
-18 -9 -3 -11 0 -6 7 9 16 -25 53 -42 47 -7 -3 -13 -1 -13 4 0 5 8 11 18 13
16 4 16 5 -1 6 -10 0 -16 5 -13 9 2 4 0 14 -6 22 -8 13 -9 12 -5 -2 3 -9 -1
-22 -10 -30 -14 -11 -15 -10 -9 12 6 19 5 21 -3 10 -6 -8 -11 -10 -11 -4 0 6
-11 17 -25 24 -13 7 -22 17 -19 22 3 4 1 8 -3 8 -5 0 -14 -9 -20 -19 -10 -15
-9 -22 2 -31 11 -9 15 -9 15 -1 0 6 -5 11 -11 11 -5 0 -8 4 -4 10 8 13 32 2
32 -15 0 -20 -29 -28 -39 -11 -5 9 -15 13 -26 9 -16 -7 -16 -6 0 10 17 17 14
52 -3 41 -5 -3 -9 0 -9 7 0 8 -4 8 -15 -1 -13 -10 -19 -10 -34 4 -11 10 -25
14 -37 9 -17 -6 -18 -5 -4 13 8 10 11 16 6 12 -5 -4 -18 -3 -29 3 -12 7 -17 7
-13 1 3 -6 -5 -9 -19 -8 -16 0 -23 6 -20 14 3 7 0 10 -6 7 -12 -8 -41 14 -34
25 3 5 0 12 -6 16 -8 4 -9 3 -5 -4 4 -7 1 -13 -6 -13 -56 -6 -70 -3 -79 13 -6
10 -16 15 -25 11 -14 -5 -15 -3 -5 15 16 30 13 41 -4 12 -8 -14 -14 -19 -15
-11 0 23 -12 4 -15 -24 -3 -27 4 -32 22 -14 8 8 16 8 30 0 16 -11 15 -11 -7
-7 -14 3 -19 3 -12 0 6 -3 10 -9 8 -13 -3 -4 1 -8 9 -8 8 0 15 5 15 11 0 6 9
-4 20 -21 22 -36 29 -39 50 -20 12 10 12 9 1 -5 -11 -14 -8 -19 16 -32 15 -8
24 -15 19 -16 -5 0 -24 9 -42 21 -31 19 -44 16 -26 -7 4 -5 5 -8 3 -7 -2 2
-10 -5 -18 -15 -13 -16 -13 -15 -6 3 13 31 9 53 -12 69 -14 10 -25 11 -37 5
-10 -5 -18 -6 -18 -2 0 4 -5 1 -11 -7 -9 -13 -10 -13 -6 0 2 8 10 14 16 12 6
-1 11 5 11 14 0 9 -5 12 -12 8 -7 -5 -30 -9 -51 -10 -30 -1 -35 1 -26 12 9 11
9 14 0 14 -6 0 -16 -10 -22 -22 -8 -20 -9 -19 -4 6 6 27 5 28 -11 15 -11 -9
-15 -9 -10 -1 4 7 2 12 -4 12 -7 0 -10 6 -7 14 7 18 -35 15 -60 -5 -9 -8 -14
-9 -10 -3 7 11 -19 29 -36 25 -5 -1 -6 3 -3 8 4 5 2 12 -3 15 -9 6 -27 -30
-24 -45 1 -3 -4 -6 -10 -6 -10 0 -9 9 3 33 15 33 38 39 71 18 8 -5 9 -3 4 6
-5 9 -4 11 3 6 21 -13 13 -28 -10 -21 -23 7 -23 7 -3 -8 18 -14 21 -14 32 6
16 28 16 38 1 36 -26 -3 -39 1 -33 11 3 6 1 10 -5 10 -7 0 -9 -7 -5 -17 5 -14
3 -15 -6 -6 -6 6 -18 9 -26 6 -7 -3 -13 -2 -12 3 3 20 -2 35 -10 29 -5 -3 -11
3 -14 12 -2 10 -4 2 -3 -18 1 -28 5 -35 16 -32 13 4 13 4 0 -6 -8 -6 -11 -11
-7 -11 19 0 -14 -36 -35 -37 -17 -2 -19 0 -8 7 8 5 17 7 21 4 4 -2 10 3 13 12
4 12 2 15 -9 10 -13 -4 -14 -2 -5 14 7 13 7 20 1 20 -6 0 -8 6 -5 14 3 8 -4
20 -15 28 -12 8 -18 18 -13 23 4 4 -3 3 -15 -4 -12 -6 -25 -16 -28 -21 -7 -12
-25 -4 -25 11 0 6 5 7 10 4 6 -3 10 -1 10 5 0 7 -8 9 -22 4 -20 -6 -21 -5 -9
10 8 9 9 16 3 16 -6 0 -13 -6 -16 -12 -3 -9 -9 -7 -20 6 -16 20 -16 20 -16 0
0 -14 -2 -16 -9 -6 -6 10 -10 9 -14 -7 -4 -15 -12 -20 -31 -19 -14 1 -26 5
-26 9 0 4 -10 6 -22 4 -60 -10 -63 -10 -60 4 2 11 0 12 -11 3 -8 -7 -18 -8
-22 -4 -5 4 -5 -1 -2 -11 4 -10 7 -22 7 -26 0 -4 10 -7 23 -8 21 -2 21 -1 3
13 -11 8 -15 14 -9 14 10 0 39 -29 32 -31 -27 -9 -52 -4 -56 12 -3 11 -10 19
-15 19 -5 0 -6 -5 -3 -10 4 -6 3 -10 -2 -9 -21 4 -34 -2 -28 -12 4 -6 -2 -5
-13 2 -12 7 -19 16 -16 20 2 4 -3 14 -11 23 -9 9 -11 17 -5 21 14 8 13 25 -2
25 -6 0 -8 -3 -5 -7z m345 -58 c26 -22 31 -23 42 -10 14 17 20 18 38 6 16 -10
23 -59 10 -67 -4 -3 -6 -10 -3 -15 4 -5 1 -9 -4 -9 -15 0 -14 13 1 28 10 10 8
12 -7 9 -11 -1 -26 -6 -34 -11 -9 -6 -19 -1 -32 15 -10 13 -19 27 -19 30 0 9
-30 7 -30 -2 0 -4 8 -12 17 -18 10 -5 15 -12 11 -16 -3 -3 -12 1 -19 10 -8 9
-22 24 -32 35 -18 18 -18 18 0 29 25 15 28 14 61 -14z m-363 -6 c-10 -15 -25
-10 -19 6 4 8 10 12 15 9 5 -3 7 -10 4 -15z m249 8 c3 3 6 2 6 -4 0 -21 -30
-22 -41 -2 -9 18 -9 19 9 10 11 -6 22 -7 26 -4z m-47 -17 c10 -15 10 -21 0
-26 -6 -4 -9 -3 -4 1 4 5 0 17 -10 27 -9 10 -12 18 -7 18 5 0 15 -9 21 -20z
m81 -15 c-3 -3 -9 2 -12 12 -6 14 -5 15 5 6 7 -7 10 -15 7 -18z m-172 -15 c5
1 10 -4 12 -12 3 -11 2 -11 -6 0 -5 8 -13 13 -18 12 -5 -1 -10 4 -12 12 -3 11
-2 11 6 0 5 -8 13 -13 18 -12z m158 4 c3 -8 2 -12 -4 -9 -6 3 -10 10 -10 16 0
14 7 11 14 -7z m27 -11 c-12 -20 -14 -14 -5 12 4 9 9 14 11 11 3 -2 0 -13 -6
-23z m-61 7 c0 -5 -5 -10 -11 -10 -5 0 -7 5 -4 10 3 6 8 10 11 10 2 0 4 -4 4
-10z m-167 -25 c-3 -9 -8 -14 -10 -11 -3 3 -2 9 2 15 9 16 15 13 8 -4z m85 -5
c-7 -10 -14 -17 -17 -15 -4 4 18 35 25 35 2 0 -1 -9 -8 -20z m47 10 c3 -6 -1
-7 -9 -4 -18 7 -21 14 -7 14 6 0 13 -4 16 -10z m-157 -20 c12 -19 11 -20 -8
-8 -20 13 -27 28 -12 28 4 0 13 -9 20 -20z m123 -13 c-10 -9 -11 -8 -5 6 3 10
9 15 12 12 3 -3 0 -11 -7 -18z m144 15 c-3 -3 1 -12 7 -21 10 -12 7 -12 -8 2
-11 9 -24 14 -29 10 -4 -5 -5 -3 -2 3 3 6 13 11 22 11 8 0 13 -3 10 -5z m75
-2 c12 -7 10 -9 -8 -7 -12 0 -22 5 -22 9 0 11 12 10 30 -2z m-372 -22 c-2 -7
4 -11 12 -10 8 2 12 0 8 -4 -4 -4 -3 -12 2 -19 7 -8 5 -12 -5 -12 -8 0 -12 4
-10 8 3 3 -2 12 -10 19 -8 7 -12 16 -9 21 8 13 14 11 12 -3z m93 -11 c-10 -9
-11 -8 -5 6 3 10 9 15 12 12 3 -3 0 -11 -7 -18z m-188 -5 c-10 -10 -20 -14
-22 -9 -2 5 3 13 10 18 24 15 30 10 12 -9z m517 15 c0 -2 -10 -12 -21 -23 -22
-19 -22 -19 -8 4 12 19 29 30 29 19z m-443 -27 c10 -13 8 -16 -6 -16 -13 0
-17 6 -13 19 2 10 5 16 6 15 1 -2 7 -10 13 -18z m254 3 c13 -17 13 -17 -6 -3
-11 8 -22 16 -24 17 -2 2 0 3 6 3 6 0 17 -8 24 -17z m306 11 c-3 -3 -12 -4
-19 -1 -8 3 -5 6 6 6 11 1 17 -2 13 -5z m83 -4 c0 -5 -5 -10 -11 -10 -5 0 -7
5 -4 10 3 6 8 10 11 10 2 0 4 -4 4 -10z m155 0 c3 -5 1 -10 -4 -10 -6 0 -11 5
-11 10 0 6 2 10 4 10 3 0 8 -4 11 -10z m-841 -16 c3 -8 2 -12 -4 -9 -6 3 -10
10 -10 16 0 14 7 11 14 -7z m207 -1 c13 -16 12 -17 -3 -4 -10 7 -18 15 -18 17
0 8 8 3 21 -13z m44 -3 c-3 -5 -12 -10 -18 -10 -7 0 -6 4 3 10 19 12 23 12 15
0z m370 0 c3 -6 -1 -7 -9 -4 -18 7 -21 14 -7 14 6 0 13 -4 16 -10z m55 -31 c0
-4 -5 -11 -12 -15 -6 -4 -8 -3 -5 4 10 15 -3 43 -16 35 -6 -4 -7 -1 -2 7 6 10
11 9 22 -5 7 -11 13 -22 13 -26z m-137 16 c-3 -9 -8 -14 -10 -11 -3 3 -2 9 2
15 9 16 15 13 8 -4z m154 -7 c-3 -8 -6 -5 -6 6 -1 11 2 17 5 13 3 -3 4 -12 1
-19z m-727 0 c0 -11 -12 -10 -30 2 -12 7 -10 9 8 7 12 0 22 -5 22 -9z m425 2
c3 -6 -1 -7 -9 -4 -18 7 -21 14 -7 14 6 0 13 -4 16 -10z m537 -11 c-1 -9 3 -8
11 4 19 23 29 22 56 -7 17 -18 31 -22 58 -20 21 1 32 -1 24 -5 -10 -6 -9 -10
4 -15 9 -3 13 -11 10 -18 -4 -7 1 -4 9 6 16 19 16 19 40 -3 14 -14 25 -18 28
-11 2 6 11 8 21 5 9 -4 15 -11 12 -16 -3 -4 -12 -6 -20 -3 -18 7 -13 -25 6
-37 9 -5 10 -9 2 -9 -6 0 -14 4 -18 10 -3 5 -12 7 -19 4 -8 -3 -17 0 -21 5 -3
6 -12 8 -18 5 -8 -5 -8 -3 1 7 21 22 13 33 -10 13 -12 -10 -18 -13 -14 -6 4 7
2 12 -4 12 -7 0 -10 7 -6 15 3 8 2 15 -3 15 -12 0 -21 -38 -10 -44 5 -2 4 -3
-3 -2 -7 2 -12 10 -10 18 1 8 -5 15 -13 15 -9 0 -14 -6 -11 -12 2 -6 -2 -12
-9 -12 -10 0 -11 5 -4 19 6 10 13 16 17 14 5 -3 14 -1 22 5 12 6 9 9 -10 9
-15 0 -32 -6 -39 -12 -11 -11 -14 -10 -18 0 -3 6 -10 9 -16 5 -8 -4 -7 -1 1 9
10 13 10 17 -4 22 -9 3 -20 3 -25 0 -11 -7 -39 14 -39 28 0 5 6 8 13 5 6 -2
11 -11 9 -18z m-805 -22 c1 -11 1 -18 0 -16 -2 2 -8 11 -15 20 -9 12 -9 16 1
16 7 0 14 -9 14 -20z m194 6 c13 -16 12 -17 -3 -4 -10 7 -18 15 -18 17 0 8 8
3 21 -13z m173 9 c2 -4 -4 -8 -14 -8 -10 0 -16 4 -14 8 3 4 9 8 14 8 5 0 11
-4 14 -8z m236 -24 c0 -19 -16 -5 -17 14 -2 18 0 20 7 8 5 -8 10 -18 10 -22z
m-740 18 c0 -2 -8 -10 -17 -17 -16 -13 -17 -12 -4 4 13 16 21 21 21 13z m41
-13 c13 -16 12 -17 -3 -4 -10 7 -18 15 -18 17 0 8 8 3 21 -13z m160 0 c13 -16
12 -17 -3 -4 -10 7 -18 15 -18 17 0 8 8 3 21 -13z m37 -8 c-3 -3 -9 2 -12 12
-6 14 -5 15 5 6 7 -7 10 -15 7 -18z m42 21 c0 -2 -8 -10 -17 -17 -16 -13 -17
-12 -4 4 13 16 21 21 21 13z m485 -34 c-17 -15 -18 -15 -6 0 7 9 9 23 5 30 -6
10 -4 11 7 0 11 -10 10 -15 -6 -30z m52 32 c-3 -3 -12 -4 -19 -1 -8 3 -5 6 6
6 11 1 17 -2 13 -5z m-922 -14 c-3 -5 -1 -10 6 -10 7 0 10 -2 7 -5 -3 -3 -13
-2 -22 1 -14 5 -15 9 -4 15 17 11 20 11 13 -1z m216 -7 c13 -16 12 -17 -3 -4
-15 11 -21 11 -35 0 -16 -13 -17 -12 -4 4 7 9 17 17 21 17 4 0 14 -8 21 -17z
m333 9 c3 -5 -1 -9 -9 -9 -8 0 -12 4 -9 9 3 4 7 8 9 8 2 0 6 -4 9 -8z m173
-11 c0 -11 -5 -18 -9 -15 -4 3 -5 11 -1 19 7 21 12 19 10 -4z m283 9 c12 -7
10 -9 -8 -7 -12 0 -22 5 -22 9 0 11 12 10 30 -2z m-240 -4 c0 -2 -8 -10 -17
-17 -16 -13 -17 -12 -4 4 13 16 21 21 21 13z m204 -12 c3 -8 2 -12 -4 -9 -6 3
-10 10 -10 16 0 14 7 11 14 -7z m-1004 -4 c0 -5 -4 -10 -10 -10 -5 0 -10 5
-10 10 0 6 5 10 10 10 6 0 10 -4 10 -10z m160 2 c0 -5 -7 -9 -15 -9 -8 0 -12
4 -9 9 3 4 9 8 15 8 5 0 9 -4 9 -8z m365 -2 c3 -6 -1 -7 -9 -4 -18 7 -21 14
-7 14 6 0 13 -4 16 -10z m76 -3 c-6 -8 -7 -18 -3 -22 4 -5 1 -5 -6 -1 -10 6
-10 11 -1 22 6 8 14 14 16 14 3 0 0 -6 -6 -13z m-626 -17 c3 -5 0 -7 -9 -4
-11 4 -14 0 -11 -15 2 -12 0 -19 -5 -16 -6 4 -7 22 -1 43 2 6 21 1 26 -8z m42
-4 c0 -8 -6 -12 -15 -9 -11 5 -11 7 0 14 7 5 13 9 14 9 0 0 1 -6 1 -14z m698
4 c3 -5 1 -10 -4 -10 -6 0 -11 5 -11 10 0 6 2 10 4 10 3 0 8 -4 11 -10z m-524
-27 c13 -16 12 -17 -3 -4 -10 7 -18 15 -18 17 0 8 8 3 21 -13z m49 13 c0 -2
-7 -7 -16 -10 -8 -3 -12 -2 -9 4 6 10 25 14 25 6z m402 -15 c-4 -10 -7 -11
-10 -3 -2 7 -9 9 -14 6 -6 -4 -8 -3 -5 3 10 16 36 11 29 -6z m353 11 c-3 -3 0
-11 6 -19 17 -20 5 -16 -14 5 -15 16 -15 19 -2 19 8 0 13 -3 10 -5z m40 -10
c-3 -3 -11 0 -18 7 -9 10 -8 11 6 5 10 -3 15 -9 12 -12z m-898 -5 c0 -8 -6
-14 -14 -14 -9 0 -10 4 -2 14 6 7 12 13 14 13 1 0 2 -6 2 -13z m-100 -15 c0
-10 -6 -19 -13 -19 -9 0 -9 5 -1 19 7 10 13 18 14 18 1 0 1 -8 0 -18z m638 8
c3 -5 1 -10 -4 -10 -6 0 -11 5 -11 10 0 6 2 10 4 10 3 0 8 -4 11 -10z m95 0
c-8 -5 -19 -10 -25 -10 -5 0 -3 5 5 10 8 5 20 10 25 10 6 0 3 -5 -5 -10z m350
0 c0 -5 -4 -10 -10 -10 -5 0 -10 5 -10 10 0 6 5 10 10 10 6 0 10 -4 10 -10z
m26 -18 c-17 -16 -18 -16 -5 5 7 12 15 20 18 17 3 -2 -3 -12 -13 -22z m310
-14 c6 -19 6 -19 19 -1 13 17 13 17 12 -2 -1 -13 3 -19 14 -17 9 1 22 -5 30
-14 11 -13 10 -17 -2 -25 -8 -5 -18 -9 -24 -9 -5 0 -5 4 2 8 9 6 6 11 -8 20
-19 12 -20 11 -14 -7 3 -10 1 -22 -5 -26 -6 -3 -7 -11 -4 -17 4 -7 2 -8 -5 -4
-9 6 -9 11 -1 21 8 10 8 19 0 34 -13 26 -15 26 -39 0 -14 -15 -21 -17 -26 -8
-5 7 -4 10 3 5 12 -7 21 13 14 31 -2 7 -9 10 -16 6 -6 -3 -3 3 7 14 9 11 14
24 10 28 -5 5 0 3 9 -4 10 -7 20 -22 24 -33z m-1653 5 c-9 -13 -20 -23 -25
-23 -5 0 -6 -6 -2 -12 6 -10 4 -10 -7 -2 -18 14 -51 14 -46 0 2 -6 12 -10 21
-8 15 3 15 2 -1 -17 -13 -16 -20 -18 -31 -9 -11 10 -13 8 -10 -7 1 -10 -3 -20
-9 -22 -7 -3 -13 0 -13 6 0 6 -5 11 -11 11 -5 0 -7 -6 -3 -12 5 -9 2 -9 -9 1
-9 7 -17 9 -17 4 0 -17 22 -32 39 -26 17 7 16 5 -13 -17 -16 -12 -18 -12 -12
-1 6 9 5 12 -5 9 -8 -3 -13 -14 -11 -24 2 -16 1 -16 -7 -4 -7 9 -7 18 -1 24
22 22 8 24 -25 5 -37 -22 -50 -48 -15 -29 16 9 22 8 26 -5 4 -9 2 -21 -4 -27
-8 -8 -9 -5 -5 11 4 17 2 20 -11 15 -9 -3 -13 -10 -10 -15 3 -5 0 -9 -5 -9 -6
0 -11 5 -11 11 0 5 -3 8 -7 6 -5 -3 -8 12 -8 33 -1 28 2 36 11 30 6 -6 15 -6
19 -2 5 4 5 1 1 -5 -9 -16 -1 -16 25 -3 14 8 18 18 15 37 -3 14 -2 23 1 19 3
-3 12 -1 20 5 7 6 13 8 13 3 0 -4 16 7 35 26 32 31 36 32 52 18 16 -13 20 -13
35 3 12 12 13 19 5 22 -7 3 -2 5 9 4 20 -1 21 -3 7 -24z m1447 23 c0 -2 -7 -7
-16 -10 -8 -3 -12 -2 -9 4 6 10 25 14 25 6z m-1376 -55 c-2 -2 4 -14 13 -25
18 -21 18 -21 -4 -2 -12 10 -22 21 -21 25 1 3 -2 14 -6 23 -9 19 -37 13 -30
-7 7 -17 -12 -29 -22 -14 -5 8 -3 9 6 4 10 -6 12 -4 7 8 -4 10 0 20 11 26 13
8 21 5 34 -12 9 -12 15 -24 12 -26z m46 45 c0 -3 -4 -8 -10 -11 -5 -3 -10 -1
-10 4 0 6 5 11 10 11 6 0 10 -2 10 -4z m160 0 c0 -2 -7 -7 -16 -10 -8 -3 -12
-2 -9 4 6 10 25 14 25 6z m39 -30 c-3 -3 -11 5 -18 17 -13 21 -12 21 5 5 10
-10 16 -20 13 -22z m734 16 c3 7 4 3 4 -9 -1 -13 -2 -23 -2 -23 -1 0 -12 12
-26 27 -19 22 -20 24 -3 10 17 -14 23 -15 27 -5z m349 11 c-6 -2 -10 -9 -7
-13 3 -5 1 -11 -4 -14 -7 -5 -8 11 -2 32 1 1 7 2 14 1 9 0 9 -2 -1 -6z m78 -3
c0 -5 -4 -10 -10 -10 -5 0 -10 5 -10 10 0 6 5 10 10 10 6 0 10 -4 10 -10z m81
-13 c-10 -9 -11 -8 -5 6 3 10 9 15 12 12 3 -3 0 -11 -7 -18z m-423 -12 c-3 -3
-9 2 -12 12 -6 14 -5 15 5 6 7 -7 10 -15 7 -18z m42 21 c0 -2 -8 -10 -17 -17
-16 -13 -17 -12 -4 4 13 16 21 21 21 13z m34 -26 c-6 -6 -10 -3 -10 10 0 13 4
16 10 10 7 -7 7 -13 0 -20z m103 15 c0 -8 -4 -12 -9 -9 -5 3 -6 10 -3 15 9 13
12 11 12 -6z m214 0 c5 4 6 -1 2 -10 -5 -13 -7 -14 -14 -3 -5 7 -8 18 -8 23 0
6 3 4 6 -3 2 -6 9 -10 14 -7z m-1347 -4 c-8 -8 -34 -10 -38 -2 -3 4 6 7 19 7
14 0 22 -2 19 -5z m107 -8 c12 -16 12 -17 -2 -6 -9 7 -20 9 -24 5 -5 -4 -5 -1
-1 6 9 16 11 15 27 -5z m709 7 c0 -5 -5 -10 -11 -10 -5 0 -7 5 -4 10 3 6 8 10
11 10 2 0 4 -4 4 -10z m251 -7 c13 -16 12 -17 -3 -4 -10 7 -18 15 -18 17 0 8
8 3 21 -13z m160 -6 c-10 -9 -11 -8 -5 6 3 10 9 15 12 12 3 -3 0 -11 -7 -18z
m86 8 c0 -8 -4 -12 -9 -9 -5 3 -15 2 -21 -3 -7 -4 -4 0 6 10 23 21 24 21 24 2z
m108 -14 c-6 -5 -25 10 -25 20 0 5 6 4 14 -3 8 -7 12 -15 11 -17z m-1490 1
c-3 -3 2 -14 12 -24 24 -27 10 -22 -15 5 -17 18 -19 24 -7 24 8 0 13 -3 10 -5z
m1249 0 c2 -4 -4 -8 -14 -8 -10 0 -16 4 -14 8 3 4 9 8 14 8 5 0 11 -4 14 -8z
m210 -1 c4 -5 -3 -7 -14 -4 -23 6 -26 13 -6 13 8 0 17 -4 20 -9z m-437 -23 c0
-13 -1 -17 -4 -10 -3 6 -10 9 -16 5 -7 -4 -6 1 2 10 17 21 17 21 18 -5z m177
-7 c-2 -3 -12 3 -22 13 -16 17 -16 18 5 5 12 -7 20 -15 17 -18z m-1317 5 c0
-8 -6 -12 -15 -9 -11 5 -11 7 0 14 7 5 13 9 14 9 0 0 1 -6 1 -14z m1097 2 c-3
-4 -11 -5 -19 -1 -21 7 -19 12 4 10 11 0 18 -5 15 -9z m136 2 c-8 -5 -17 -7
-21 -4 -4 2 -12 -3 -19 -11 -7 -8 -17 -15 -22 -15 -19 0 34 36 55 38 17 1 18
-1 7 -8z m43 -8 c15 -16 15 -19 2 -19 -8 0 -13 3 -10 5 3 3 0 11 -6 19 -17 20
-5 16 14 -5z m167 3 c0 -2 -9 -3 -19 -2 -11 0 -18 5 -15 9 4 6 34 0 34 -7z
m131 -2 c13 -17 13 -17 -6 -3 -11 8 -22 16 -24 17 -2 2 0 3 6 3 6 0 17 -8 24
-17z m89 2 c0 -8 -2 -15 -4 -15 -2 0 -6 7 -10 15 -3 8 -1 15 4 15 6 0 10 -7
10 -15z m-1624 -20 c-1 -13 -5 -27 -9 -31 -3 -4 -5 3 -2 15 2 12 -1 21 -8 21
-7 0 -6 4 3 10 8 5 15 10 16 10 0 0 0 -11 0 -25z m-90 -13 c-17 -16 -18 -16
-5 5 7 12 15 20 18 17 3 -2 -3 -12 -13 -22z m294 18 c0 -5 -4 -10 -10 -10 -5
0 -10 5 -10 10 0 6 5 10 10 10 6 0 10 -4 10 -10z m60 6 c0 -3 -4 -8 -10 -11
-5 -3 -10 -1 -10 4 0 6 5 11 10 11 6 0 10 -2 10 -4z m944 -4 c3 -5 -1 -9 -9
-9 -8 0 -12 4 -9 9 3 4 7 8 9 8 2 0 6 -4 9 -8z m396 -2 c0 -5 -5 -10 -11 -10
-5 0 -7 5 -4 10 3 6 8 10 11 10 2 0 4 -4 4 -10z m-184 -20 c0 -12 -4 -16 -9
-11 -5 5 -6 14 -3 20 10 15 12 14 12 -9z m-1459 3 c-4 -3 -1 -13 6 -22 11 -14
10 -14 -5 -2 -16 12 -16 31 -1 31 4 0 3 -3 0 -7z m120 -10 c0 -8 -5 -9 -11 -4
-6 5 -19 7 -28 6 -10 -2 -20 0 -22 4 -3 4 10 7 28 7 20 0 33 -5 33 -13z m53 2
c11 -13 10 -14 -4 -9 -9 3 -16 10 -16 15 0 13 6 11 20 -6z m1226 -29 c1 -20 0
-36 -4 -36 -4 0 -8 18 -8 40 -1 49 7 45 12 -4z m195 21 c-10 -9 -11 -8 -5 6 3
10 9 15 12 12 3 -3 0 -11 -7 -18z m-1677 -9 c-5 -7 -2 -9 7 -6 10 4 15 -1 15
-13 0 -17 -2 -17 -18 -2 -15 14 -16 33 -2 33 3 0 2 -5 -2 -12z m1517 -5 c13
-16 12 -17 -3 -4 -10 7 -18 15 -18 17 0 8 8 3 21 -13z m87 -2 c-7 -9 -13 -18
-15 -20 -1 -2 -1 5 0 16 0 11 7 20 14 20 10 0 10 -4 1 -16z m47 9 c3 -6 -1 -7
-9 -4 -18 7 -21 14 -7 14 6 0 13 -4 16 -10z m128 -2 c-2 -5 -10 -8 -18 -8 -8
0 -16 3 -18 8 -3 4 5 7 18 7 13 0 21 -3 18 -7z m-1538 -7 c3 -5 0 -13 -6 -17
-7 -4 -9 -3 -5 4 3 5 0 13 -6 15 -9 4 -10 6 -1 6 6 1 14 -3 18 -8z m1557 -13
c-7 -7 -12 -8 -12 -2 0 6 3 14 7 17 3 4 9 5 12 2 2 -3 -1 -11 -7 -17z m-1602
8 c0 -2 -8 -10 -17 -17 -16 -13 -17 -12 -4 4 13 16 21 21 21 13z m1365 -16
c10 -11 16 -20 13 -20 -3 0 -13 9 -23 20 -10 11 -16 20 -13 20 3 0 13 -9 23
-20z m161 -11 c1 -19 -1 -26 -6 -19 -4 7 -6 20 -5 29 7 32 10 29 11 -10z
m-186 7 c0 -2 -8 -10 -17 -17 -16 -13 -17 -12 -4 4 13 16 21 21 21 13z m-1309
-23 c13 -16 12 -17 -3 -4 -10 7 -18 15 -18 17 0 8 8 3 21 -13z m1396 -13 c-2
-23 -10 -17 -12 10 -1 10 2 17 6 14 4 -2 7 -13 6 -24z m-1657 10 c0 -5 -5 -10
-11 -10 -5 0 -7 5 -4 10 3 6 8 10 11 10 2 0 4 -4 4 -10z m1811 -13 c-10 -9
-11 -8 -5 6 3 10 9 15 12 12 3 -3 0 -11 -7 -18z m-1732 0 c8 -10 7 -14 -2 -14
-8 0 -14 6 -14 14 0 7 1 13 2 13 2 0 8 -6 14 -13z m1641 9 c0 -2 -8 -10 -17
-17 -16 -13 -17 -12 -4 4 13 16 21 21 21 13z m-1676 -14 c2 -4 -4 -8 -14 -8
-10 0 -16 4 -14 8 3 4 9 8 14 8 5 0 11 -4 14 -8z m1814 -23 c-3 -8 -7 -3 -11
10 -4 17 -3 21 5 13 5 -5 8 -16 6 -23z m-1722 2 c0 -11 -5 -17 -13 -14 -10 4
-11 9 -2 19 15 18 15 18 15 -5z m1619 10 c3 -5 2 -12 -3 -15 -5 -3 -9 1 -9 9
0 17 3 19 12 6z m-2014 -24 c-10 -9 -11 -8 -5 6 3 10 9 15 12 12 3 -3 0 -11
-7 -18z m203 13 c-3 -3 -9 -4 -12 -3 -4 1 -14 -5 -22 -12 -14 -12 -16 -12 -16
3 0 12 9 17 28 17 15 1 25 -2 22 -5z m1777 -17 c13 -16 12 -17 -3 -4 -10 7
-18 15 -18 17 0 8 8 3 21 -13z m76 -11 c-17 -18 -51 -27 -41 -10 3 5 9 6 14 3
4 -3 13 2 20 10 7 8 15 15 18 15 3 0 -2 -8 -11 -18z m47 10 c3 -5 -1 -9 -9 -9
-8 0 -12 4 -9 9 3 4 7 8 9 8 2 0 6 -4 9 -8z m-1991 -15 c4 3 7 1 7 -5 0 -14
-2 -14 -24 -6 -9 3 -16 11 -16 16 0 7 5 6 13 -1 8 -6 17 -8 20 -4z m83 -7 c0
-12 -4 -16 -9 -11 -5 5 -6 14 -3 20 10 15 12 14 12 -9z m1765 3 c13 -16 12
-17 -3 -4 -10 7 -18 15 -18 17 0 8 8 3 21 -13z m189 13 c0 -2 -7 -7 -16 -10
-8 -3 -12 -2 -9 4 6 10 25 14 25 6z m-1879 -23 c12 -16 12 -17 -2 -6 -9 7 -19
10 -22 6 -4 -3 -7 -1 -7 5 0 17 16 15 31 -5z m-334 -23 c2 -14 -2 -18 -12 -13
-13 4 -13 8 -3 22 12 14 11 15 -5 2 -18 -14 -17 -16 14 -43 17 -15 28 -28 22
-28 -5 0 -14 5 -19 10 -8 8 -15 6 -25 -6 -12 -16 -12 -17 2 -12 9 3 22 2 30
-4 11 -8 10 -9 -3 -4 -11 3 -23 -3 -31 -15 -9 -11 -21 -17 -30 -14 -17 7 -17
26 2 49 7 9 10 16 6 16 -4 0 -2 6 4 13 6 8 7 17 3 21 -4 4 2 14 12 22 22 15
29 12 33 -16z m83 -15 c0 -5 -5 -3 -10 5 -5 8 -10 20 -10 25 0 6 5 3 10 -5 5
-8 10 -19 10 -25z m35 25 c3 -5 1 -10 -4 -10 -6 0 -11 5 -11 10 0 6 2 10 4 10
3 0 8 -4 11 -10z m2079 1 c3 -5 -2 -15 -12 -22 -15 -12 -16 -12 -5 2 7 9 10
19 6 22 -3 4 -4 7 0 7 3 0 8 -4 11 -9z m-1878 -13 c5 4 6 3 2 -2 -4 -5 -3 -14
2 -21 7 -8 5 -12 -5 -12 -8 0 -13 3 -10 5 3 3 -3 15 -12 26 -14 15 -14 18 -2
8 9 -6 20 -8 25 -4z m1824 -9 c0 -5 -4 -9 -8 -9 -5 0 -9 7 -9 15 0 8 4 12 9 9
4 -3 8 -9 8 -15z m-1867 -7 c15 -16 15 -19 2 -19 -8 0 -13 3 -10 5 3 3 0 11
-6 19 -17 20 -5 16 14 -5z m100 -7 c-3 -9 -8 -14 -10 -11 -3 3 -2 9 2 15 9 16
15 13 8 -4z m-333 1 c0 -2 -7 -6 -15 -10 -8 -3 -15 -1 -15 4 0 6 7 10 15 10 8
0 15 -2 15 -4z m24 -22 c3 -8 2 -12 -4 -9 -6 3 -10 10 -10 16 0 14 7 11 14 -7z
m51 -3 c-9 -8 -36 -10 -30 -2 2 4 11 8 20 8 8 0 13 -3 10 -6z m115 4 c0 -2 -6
-8 -13 -14 -10 -8 -14 -7 -14 2 0 8 6 14 14 14 7 0 13 -1 13 -2z m1876 -7 c3
-4 -1 -5 -10 -4 -8 1 -18 5 -22 8 -3 4 1 5 10 4 8 -1 18 -5 22 -8z m98 4 c3
-5 -1 -9 -9 -9 -8 0 -12 4 -9 9 3 4 7 8 9 8 2 0 6 -4 9 -8z m-2044 -6 c0 -2
-8 -10 -17 -17 -16 -13 -17 -12 -4 4 13 16 21 21 21 13z m-116 -14 c3 -5 -1
-9 -9 -9 -8 0 -12 4 -9 9 3 4 7 8 9 8 2 0 6 -4 9 -8z m238 1 c-6 -3 -9 -10 -5
-16 4 -7 -1 -6 -10 2 -21 17 -21 17 6 18 12 0 16 -1 9 -4z m1782 -1 c3 -5 -1
-9 -9 -9 -8 0 -12 4 -9 9 3 4 7 8 9 8 2 0 6 -4 9 -8z m101 -2 c3 -6 -1 -7 -9
-4 -18 7 -21 14 -7 14 6 0 13 -4 16 -10z m-67 -25 c-3 -3 -9 2 -12 12 -6 14
-5 15 5 6 7 -7 10 -15 7 -18z m135 12 c4 3 7 1 7 -5 0 -17 -16 -15 -31 6 -12
15 -12 16 2 5 9 -7 19 -10 22 -6z m-2239 -23 c3 -8 2 -12 -4 -9 -6 3 -10 10
-10 16 0 14 7 11 14 -7z m2205 3 c8 -10 7 -14 -2 -14 -8 0 -14 6 -14 14 0 7 1
13 2 13 2 0 8 -6 14 -13z m-2119 -11 c0 -2 -8 -10 -17 -17 -16 -13 -17 -12 -4
4 13 16 21 21 21 13z m55 -5 c3 -5 2 -12 -3 -15 -5 -3 -9 1 -9 9 0 17 3 19 12
6z m1965 5 c0 -2 -6 -9 -14 -15 -11 -9 -16 -9 -22 0 -4 7 -3 9 4 5 6 -3 13 -2
17 4 6 10 15 14 15 6z m34 -26 c-6 -6 -10 -3 -10 10 0 13 4 16 10 10 7 -7 7
-13 0 -20z m239 6 c21 -32 12 -105 -10 -81 -5 4 -2 10 5 12 6 3 12 9 12 14 0
6 -6 7 -12 3 -9 -5 -9 -2 1 9 11 13 11 17 1 17 -8 0 -10 3 -7 7 4 3 0 15 -10
25 -9 10 -11 18 -6 18 6 0 18 -11 26 -24z m-2383 4 c8 -5 11 -10 5 -10 -5 0
-17 5 -25 10 -8 5 -10 10 -5 10 6 0 17 -5 25 -10z m205 -9 c-3 -6 -11 -11 -16
-11 -5 0 -4 6 3 14 14 16 24 13 13 -3z m-155 5 c0 -2 -8 -10 -17 -17 -16 -13
-17 -12 -4 4 13 16 21 21 21 13z m-150 -36 c0 -5 -2 -10 -4 -10 -3 0 -8 5 -11
10 -3 6 -1 10 4 10 6 0 11 -4 11 -10z m230 5 c0 -7 -30 -13 -34 -7 -3 4 4 9
15 9 10 1 19 0 19 -2z m2057 -10 c0 -8 -4 -12 -9 -9 -4 3 -8 9 -8 15 0 5 4 9
8 9 5 0 9 -7 9 -15z m113 7 c0 -5 -7 -9 -15 -9 -8 0 -15 4 -15 9 0 4 7 8 15 8
8 0 15 -4 15 -8z m-2297 -17 c-3 -9 -8 -14 -10 -11 -3 3 -2 9 2 15 9 16 15 13
8 -4z m130 -15 c-7 -25 -16 -25 -34 -2 -13 15 -12 16 2 4 14 -10 18 -10 23 3
8 22 15 18 9 -5z m2197 10 c0 -5 -4 -10 -10 -10 -5 0 -10 5 -10 10 0 6 5 10
10 10 6 0 10 -4 10 -10z m-2389 -32 c10 -7 8 -8 -6 -3 -11 4 -26 8 -32 8 -7 0
-13 4 -13 8 0 12 24 17 31 6 4 -5 13 -14 20 -19z m26 0 c-3 -8 -6 -5 -6 6 -1
11 2 17 5 13 3 -3 4 -12 1 -19z m75 -5 c-1 -4 7 -17 16 -28 17 -20 17 -20 -4
-2 -11 9 -21 24 -21 32 0 8 2 13 5 11 2 -2 4 -8 4 -13z m2164 2 c-1 -8 -5 -17
-8 -21 -5 -4 -4 16 1 34 3 9 9 -1 7 -13z m-2232 -27 c-3 -4 -11 -5 -19 -1 -21
7 -19 12 4 10 11 0 18 -5 15 -9z m22 -55 c-18 -17 -18 -17 -7 5 11 21 8 26
-12 23 -5 -1 -5 4 -2 10 5 8 12 6 23 -5 15 -15 15 -17 -2 -33z m2294 37 c0 -5
-5 -10 -11 -10 -5 0 -7 5 -4 10 3 6 8 10 11 10 2 0 4 -4 4 -10z m57 -5 c0 -8
-4 -12 -9 -9 -5 3 -6 10 -3 15 9 13 12 11 12 -6z m37 -37 c-7 -11 -32 -10 -38
1 -4 5 4 7 16 4 19 -5 21 -3 11 8 -7 7 -13 17 -13 23 0 5 6 1 14 -9 8 -11 12
-23 10 -27z m-218 2 c0 -12 -4 -16 -9 -11 -5 5 -6 14 -3 20 10 15 12 14 12 -9z
m-2202 1 c3 -5 -1 -11 -9 -14 -9 -4 -12 -1 -8 9 6 16 10 17 17 5z m2306 -1 c0
-5 -2 -10 -4 -10 -3 0 -8 5 -11 10 -3 6 -1 10 4 10 6 0 11 -4 11 -10z m-2211
-16 c-18 -22 -20 -45 -6 -64 10 -13 10 -13 -5 -1 -10 7 -16 21 -15 31 3 18 25
50 34 50 3 0 -1 -7 -8 -16z m71 -4 c0 -5 -5 -10 -11 -10 -5 0 -7 5 -4 10 3 6
8 10 11 10 2 0 4 -4 4 -10z m2350 -5 c7 0 50 -44 51 -52 4 -20 12 -33 21 -33
5 0 6 5 2 12 -4 7 -3 8 5 4 6 -4 9 -11 6 -15 -2 -5 4 -16 14 -25 12 -11 21
-14 26 -7 5 9 17 9 55 1 9 -1 -34 -24 -52 -27 -10 -2 -18 2 -18 8 0 5 -4 8
-10 4 -15 -9 -1 -31 20 -32 13 -1 18 2 14 10 -4 7 -4 9 1 5 4 -4 14 -3 21 3 9
7 15 6 20 -3 11 -17 13 -48 2 -42 -4 3 -8 0 -8 -5 0 -6 5 -11 12 -11 6 0 4 -7
-5 -18 -10 -10 -16 -21 -15 -23 2 -2 -1 -1 -7 4 -6 5 -6 10 0 15 6 4 11 20 12
35 1 23 -2 26 -13 16 -11 -9 -18 -8 -30 2 -15 12 -16 11 -10 -7 5 -16 2 -24
-11 -28 -14 -5 -15 -4 -7 4 9 9 8 20 -4 43 -9 17 -17 26 -20 19 -2 -7 -13 -17
-25 -23 -21 -10 -21 -9 -3 5 17 14 17 16 3 22 -10 3 -17 10 -17 16 0 5 5 6 10
3 6 -3 10 1 10 10 0 9 -4 14 -8 11 -5 -3 -24 8 -43 23 -29 25 -32 31 -20 45
11 13 11 19 0 33 -12 15 -12 16 1 8 8 -6 17 -10 20 -10z m-2535 -13 c-3 -3
-11 0 -18 7 -9 10 -8 11 6 5 10 -3 15 -9 12 -12z m2361 -4 c3 -4 -1 -5 -10 -4
-8 1 -18 5 -22 8 -3 4 1 5 10 4 8 -1 18 -5 22 -8z m99 2 c-3 -5 -1 -10 6 -10
7 0 10 -3 6 -6 -9 -9 -28 6 -22 17 4 5 8 9 11 9 3 0 2 -4 -1 -10z m-2451 -22
c-19 -21 -19 -21 1 -14 16 6 18 5 8 -5 -9 -9 -16 -10 -24 -2 -7 7 -5 15 6 27
24 24 31 20 9 -6z m2430 4 c3 -5 -1 -9 -9 -9 -8 0 -12 4 -9 9 3 4 7 8 9 8 2 0
6 -4 9 -8z m44 -37 c-3 -3 -9 2 -12 12 -6 14 -5 15 5 6 7 -7 10 -15 7 -18z
m-2379 -12 c2 -1 -5 -1 -16 0 -11 0 -20 7 -20 14 0 10 4 10 16 1 9 -7 18 -13
20 -15z m78 21 c-3 -3 -12 -4 -19 -1 -8 3 -5 6 6 6 11 1 17 -2 13 -5z m-144
-18 c4 -10 0 -12 -15 -8 -15 4 -17 7 -6 13 17 11 15 11 21 -5z m148 -13 c13
-16 12 -17 -3 -4 -10 7 -18 15 -18 17 0 8 8 3 21 -13z m2254 -2 c3 -5 2 -12
-3 -15 -5 -3 -9 1 -9 9 0 17 3 19 12 6z m80 -1 c-3 -5 -12 -10 -18 -10 -7 0
-6 4 3 10 19 12 23 12 15 0z m-2402 -15 c-3 -9 -8 -14 -10 -11 -3 3 -2 9 2 15
9 16 15 13 8 -4z m44 -17 c-3 -8 -6 -5 -6 6 -1 11 2 17 5 13 3 -3 4 -12 1 -19z
m2338 4 c-3 -3 -11 0 -18 7 -9 10 -8 11 6 5 10 -3 15 -9 12 -12z m55 14 c0 -2
-9 -6 -20 -9 -11 -3 -18 -1 -14 4 5 9 34 13 34 5z m-2480 -22 c0 -8 -19 -13
-24 -6 -3 5 1 9 9 9 8 0 15 -2 15 -3z m-55 -14 c-4 -6 -1 -18 6 -26 10 -12 9
-13 -5 -8 -16 6 -21 25 -9 37 10 11 15 8 8 -3z m106 -7 c13 -16 12 -17 -3 -4
-10 7 -18 15 -18 17 0 8 8 3 21 -13z m-23 -14 c9 -12 9 -16 -1 -16 -7 0 -14 9
-14 20 -1 11 -1 18 0 16 2 -2 8 -11 15 -20z m2458 -35 c3 -16 2 -26 -1 -23 -3
4 -8 19 -11 35 -3 16 -2 26 1 23 3 -4 8 -19 11 -35z m57 21 c4 -8 3 -16 -1
-19 -4 -3 -9 4 -9 15 -2 23 3 25 10 4z m-2431 -2 c-6 -2 -10 -9 -7 -13 3 -5 1
-11 -4 -14 -7 -5 -8 11 -2 32 1 1 7 2 14 1 9 0 9 -2 -1 -6z m-167 -21 c-3 -3
-11 0 -18 7 -9 10 -8 11 6 5 10 -3 15 -9 12 -12z m59 10 c3 -5 -1 -9 -9 -9 -8
0 -12 4 -9 9 3 4 7 8 9 8 2 0 6 -4 9 -8z m2601 -23 c-4 -5 -14 -8 -23 -8 -15
1 -15 2 1 6 9 2 14 9 11 15 -4 7 -2 8 5 4 6 -4 9 -12 6 -17z m-2635 -3 c0 -2
-8 -10 -17 -17 -16 -13 -17 -12 -4 4 13 16 21 21 21 13z m73 -11 c-3 -9 -8
-14 -10 -11 -3 3 -2 9 2 15 9 16 15 13 8 -4z m2505 -10 c-3 -3 -9 2 -12 12 -6
14 -5 15 5 6 7 -7 10 -15 7 -18z m-2618 0 c0 -8 -2 -15 -4 -15 -2 0 -6 7 -10
15 -3 8 -1 15 4 15 6 0 10 -7 10 -15z m71 -2 c13 -16 12 -17 -3 -4 -10 7 -18
15 -18 17 0 8 8 3 21 -13z m84 8 c-9 -8 -36 -10 -30 -2 2 4 11 8 20 8 8 0 13
-3 10 -6z m18 -16 c-3 -9 -8 -14 -10 -11 -3 3 -2 9 2 15 9 16 15 13 8 -4z
m2497 0 c0 -2 -6 -8 -13 -14 -10 -8 -14 -7 -14 2 0 8 6 14 14 14 7 0 13 -1 13
-2z m-2541 -34 c7 -13 6 -18 -4 -18 -8 0 -12 4 -9 9 3 5 0 16 -8 25 -9 12 -9
15 -1 9 7 -4 17 -15 22 -25z m-129 9 c0 -5 -5 -10 -11 -10 -5 0 -7 5 -4 10 3
6 8 10 11 10 2 0 4 -4 4 -10z m71 -13 c-10 -9 -11 -8 -5 6 3 10 9 15 12 12 3
-3 0 -11 -7 -18z m-46 -7 c-3 -5 -12 -10 -18 -10 -7 0 -6 4 3 10 19 12 23 12
15 0z m-52 -7 c-13 -2 -23 -9 -23 -14 0 -5 10 -10 23 -10 18 -1 19 -2 3 -6
-21 -6 -41 11 -32 26 4 6 17 10 29 10 22 -2 22 -2 0 -6z m127 4 c0 -2 -8 -11
-18 -20 -15 -14 -19 -15 -19 -2 0 8 4 12 8 9 4 -2 10 0 14 6 6 10 15 14 15 7z
m2580 -17 c0 -5 -5 -10 -11 -10 -5 0 -7 5 -4 10 3 6 8 10 11 10 2 0 4 -4 4
-10z m40 6 c0 -3 -4 -8 -10 -11 -5 -3 -10 -1 -10 4 0 6 5 11 10 11 6 0 10 -2
10 -4z m-2545 -16 c-3 -5 -12 -10 -18 -10 -7 0 -6 4 3 10 19 12 23 12 15 0z
m-78 -24 c0 -7 -7 -13 -16 -11 -9 1 -25 -5 -36 -14 -17 -14 -18 -14 -7 0 6 9
9 19 6 22 -4 4 3 5 14 2 12 -2 24 0 27 6 8 13 12 11 12 -5z m43 -20 c0 -2 -7
-7 -16 -10 -8 -3 -12 -2 -9 4 6 10 25 14 25 6z m-60 -10 c0 -2 -8 -10 -17 -17
-16 -13 -17 -12 -4 4 13 16 21 21 21 13z m-60 -23 c0 -3 -7 -3 -15 1 -8 3 -15
0 -15 -6 0 -6 -3 -9 -6 -5 -11 10 6 26 21 20 8 -3 15 -7 15 -10z m-60 -33 c0
-24 -11 -32 -27 -19 -9 8 -13 8 -13 1 0 -6 8 -16 18 -22 14 -9 14 -11 1 -7 -9
3 -21 1 -25 -3 -14 -14 -38 5 -28 21 12 20 14 39 3 39 -5 0 -9 5 -9 11 0 5 3
8 8 6 4 -3 16 -1 27 3 23 9 45 -5 45 -30z m136 31 c-4 -5 0 -11 6 -14 7 -3 3
-4 -9 -4 -17 1 -19 4 -11 14 12 15 22 18 14 4z m-60 -26 c-1 -8 -5 -17 -8 -21
-5 -4 -4 16 1 34 3 9 9 -1 7 -13z m124 -3 c0 -4 -10 -9 -22 -9 -18 -2 -20 0
-8 7 18 12 30 13 30 2z m-161 -36 c9 -10 8 -15 -2 -19 -8 -3 -13 3 -13 14 0
23 0 23 15 5z m82 -3 c13 -16 12 -17 -3 -4 -10 7 -18 15 -18 17 0 8 8 3 21
-13z m-21 -18 c14 -19 14 -19 -2 -6 -10 7 -18 18 -18 24 0 6 1 8 3 6 1 -2 9
-13 17 -24z m-80 -30 c0 -5 -5 -3 -10 5 -5 8 -10 20 -10 25 0 6 5 3 10 -5 5
-8 10 -19 10 -25z m-29 2 c8 -13 6 -19 -6 -24 -10 -3 -21 0 -25 7 -5 9 -9 9
-14 1 -4 -6 0 -14 9 -18 15 -5 16 -7 2 -15 -9 -5 -14 -15 -11 -22 3 -7 -2 -16
-12 -20 -14 -5 -15 -4 -4 9 10 12 10 15 -1 15 -11 0 -11 2 1 10 10 6 11 10 3
10 -18 0 -16 21 4 35 13 9 13 14 3 20 -9 5 -11 4 -6 -3 4 -7 3 -12 -3 -12 -12
0 -22 15 -15 22 12 12 66 1 75 -15z m100 -4 c17 -20 18 -23 3 -10 -11 9 -23
15 -26 12 -2 -3 -5 2 -5 10 0 19 -1 20 28 -12z m64 18 c3 -5 2 -12 -3 -15 -5
-3 -9 1 -9 9 0 17 3 19 12 6z m42 -5 c0 -8 -6 -12 -15 -9 -11 5 -11 7 0 14 7
5 13 9 14 9 0 0 1 -6 1 -14z m-17 -23 c0 -5 -5 -15 -10 -23 -7 -12 -9 -10 -7
8 1 19 17 33 17 15z m-143 -15 c0 -8 -14 -13 -31 -14 l-31 -1 30 13 c17 7 30
13 31 14 0 0 1 -6 1 -12z m44 -5 c13 -16 12 -17 -3 -4 -10 7 -18 15 -18 17 0
8 8 3 21 -13z m-55 -25 c5 -7 3 -8 -6 -3 -9 6 -12 4 -8 -7 4 -8 0 -15 -7 -15
-10 0 -11 5 -4 19 11 21 15 22 25 6z m79 2 c-3 -5 -12 -10 -18 -10 -7 0 -6 4
3 10 19 12 23 12 15 0z m-129 -42 c0 -23 -6 -43 -13 -46 -7 -2 -13 1 -13 8 0
8 -6 8 -22 0 -22 -11 -22 -10 -4 4 15 12 16 16 5 16 -10 1 -9 3 4 11 9 5 22 7
27 4 7 -4 9 3 6 19 -3 14 -1 26 4 26 4 0 7 -19 6 -42z m213 8 c-3 -3 -11 5
-18 17 -13 21 -12 21 5 5 10 -10 16 -20 13 -22z m-115 16 c3 -5 -1 -9 -9 -9
-8 0 -12 4 -9 9 3 4 7 8 9 8 2 0 6 -4 9 -8z m-4 -37 c-7 -8 -17 -15 -23 -15
-6 0 -2 7 9 15 25 19 30 19 14 0z m114 -7 c-3 -4 -9 -8 -15 -8 -5 0 -9 4 -9 8
0 5 7 9 15 9 8 0 12 -4 9 -9z m-84 -2 c0 -2 -8 -10 -17 -17 -16 -13 -17 -12
-4 4 13 16 21 21 21 13z m37 -23 c0 -9 -4 -10 -14 -2 -7 6 -13 12 -13 14 0 1
6 2 13 2 8 0 14 -6 14 -14z m27 -9 c3 -8 2 -12 -4 -9 -6 3 -10 10 -10 16 0 14
7 11 14 -7z m-164 -4 c0 -5 -4 -10 -10 -10 -5 0 -10 5 -10 10 0 6 5 10 10 10
6 0 10 -4 10 -10z m101 -17 c13 -16 12 -17 -3 -4 -17 13 -22 21 -14 21 2 0 10
-8 17 -17z m52 -18 c-6 -17 -33 -21 -33 -5 0 6 6 9 13 8 6 -2 11 3 9 10 -1 8
2 11 7 7 6 -3 8 -12 4 -20z m-164 -15 c11 -22 10 -23 -2 -8 -8 10 -17 15 -21
11 -4 -4 -4 1 0 10 7 20 7 20 23 -13z m41 15 c-7 -8 -17 -15 -23 -15 -6 0 -2
7 9 15 25 19 30 19 14 0z m51 -2 c13 -16 12 -17 -3 -4 -17 13 -22 21 -14 21 2
0 10 -8 17 -17z m-22 -16 c8 -10 7 -14 -2 -14 -8 0 -14 6 -14 14 0 7 1 13 2
13 2 0 8 -6 14 -13z m46 -7 c-3 -5 -12 -10 -18 -10 -7 0 -6 4 3 10 19 12 23
12 15 0z m-145 -9 c0 -6 -5 -13 -10 -16 -6 -4 -9 -14 -6 -23 3 -10 -1 -28 -9
-42 -8 -14 -15 -20 -16 -15 -7 53 -4 67 13 76 10 5 16 14 13 20 -4 5 -1 9 4 9
6 0 11 -4 11 -9z m35 -19 c-3 -3 -11 0 -18 7 -9 10 -8 11 6 5 10 -3 15 -9 12
-12z m129 -12 c-6 -6 -10 -3 -10 10 0 13 4 16 10 10 7 -7 7 -13 0 -20z m51 21
c3 -5 2 -12 -3 -15 -5 -3 -9 1 -9 9 0 17 3 19 12 6z m-185 -27 c0 -2 -7 -4
-15 -4 -8 0 -15 4 -15 10 0 5 7 7 15 4 8 -4 15 -8 15 -10z m2679 -10 c7 -17
17 -24 26 -20 19 7 19 -3 1 -27 -15 -20 -32 -7 -21 16 4 6 -1 3 -9 -8 -9 -11
-14 -26 -11 -34 4 -11 2 -11 -8 -2 -11 8 -18 7 -31 -7 -9 -10 -14 -22 -11 -25
3 -4 2 -5 -2 -2 -3 3 -17 -5 -30 -17 -17 -16 -20 -24 -12 -35 9 -9 7 -14 -5
-19 -9 -3 -16 -13 -16 -21 0 -12 -3 -13 -14 -4 -10 8 -16 8 -25 -2 -6 -8 -7
-18 -3 -22 4 -5 2 -5 -5 -1 -13 7 -39 -31 -35 -51 2 -7 -2 -13 -8 -13 -5 0 -9
6 -7 13 1 7 -7 11 -20 10 -13 -2 -23 2 -23 8 0 5 5 7 12 3 8 -5 9 -2 5 10 -5
12 -3 15 6 9 22 -13 33 -11 46 10 12 18 11 19 -6 13 -10 -4 -20 -8 -23 -9 -3
-1 -5 3 -5 8 0 6 6 9 14 7 9 -2 12 2 8 12 -6 16 48 66 71 66 7 0 12 5 12 11 0
5 -4 8 -9 4 -5 -3 -12 -1 -16 4 -3 6 6 8 21 5 19 -3 24 -1 18 8 -15 23 -13 37
4 31 11 -5 13 -3 7 8 -8 12 -6 12 8 0 19 -15 24 -2 6 16 -9 9 -7 11 7 9 11 -2
18 -10 16 -20 -4 -20 14 -21 22 -1 3 8 -3 20 -14 28 -18 13 -18 13 2 26 11 7
17 8 14 2 -4 -5 2 -9 14 -8 20 1 29 17 10 17 -5 0 -10 5 -10 10 0 19 17 10 29
-16z m-2601 -1 c-9 -10 -14 -26 -13 -36 2 -9 0 -15 -5 -12 -15 9 8 65 28 65 3
0 -2 -8 -10 -17z m32 -7 c0 -2 -8 -10 -17 -17 -16 -13 -17 -12 -4 4 13 16 21
21 21 13z m-129 -17 c-19 -8 -21 -12 -11 -24 11 -13 10 -14 -4 -9 -9 3 -16 9
-16 13 0 13 24 31 40 30 9 0 5 -4 -9 -10z m166 -6 c0 -9 -4 -10 -14 -2 -7 6
-13 12 -13 14 0 1 6 2 13 2 8 0 14 -6 14 -14z m2420 2 c0 -8 -4 -12 -9 -9 -5
3 -6 10 -3 15 9 13 12 11 12 -6z m-2394 -9 c3 -8 0 -17 -7 -19 -10 -4 -12 1
-9 14 6 23 9 24 16 5z m-49 -12 c3 -9 2 -12 -5 -9 -5 4 -18 1 -27 -6 -13 -11
-12 -8 2 9 23 26 22 26 30 6z m2376 12 c0 -2 -8 -10 -17 -17 -16 -13 -17 -12
-4 4 13 16 21 21 21 13z m-2510 -39 c10 4 9 1 -3 -9 -10 -7 -19 -20 -20 -28
-2 -8 -6 -20 -10 -27 -5 -7 -1 -11 10 -11 10 0 25 -1 33 -3 8 -2 14 2 12 9 -1
6 2 12 8 12 14 0 12 -11 -5 -34 -8 -11 -15 -14 -15 -8 0 7 -5 12 -10 12 -7 0
-7 -6 -1 -19 6 -10 7 -21 4 -25 -3 -3 -1 -6 5 -6 7 0 12 5 12 10 0 6 5 10 11
10 8 0 8 -4 0 -14 -8 -10 -9 -16 -1 -21 5 -3 10 -1 10 4 0 6 5 11 11 11 8 0 9
-4 0 -13 -11 -14 -5 -27 11 -27 5 0 6 6 2 13 -4 6 2 3 14 -7 20 -17 27 -15 23
7 0 4 4 7 9 7 13 0 13 -13 0 -26 -6 -6 -12 -21 -15 -33 -3 -17 0 -21 10 -17 8
3 14 0 12 -6 -1 -6 4 -13 12 -16 8 -2 11 0 8 5 -8 12 10 39 20 30 4 -5 2 -12
-6 -16 -7 -5 -12 -11 -12 -15 3 -19 0 -29 -6 -23 -3 4 -13 1 -22 -5 -9 -7 -13
-8 -9 -4 4 5 -2 22 -14 38 -14 20 -23 26 -28 18 -5 -8 -9 -7 -14 5 -3 10 -11
13 -18 9 -10 -6 -10 -5 -1 7 10 12 8 17 -8 27 -11 7 -17 16 -14 21 6 10 -19
33 -28 25 -8 -8 -36 38 -34 56 2 8 6 20 10 26 4 7 -1 15 -11 19 -16 6 -16 7 0
19 10 7 14 17 10 21 -4 4 2 3 13 -2 11 -6 27 -8 35 -6z m80 10 c0 -2 -8 -11
-18 -20 -15 -14 -19 -15 -19 -2 0 8 4 12 8 9 4 -2 10 0 14 6 6 10 15 14 15 7z
m2457 -12 c0 -8 -4 -15 -9 -15 -10 0 -11 14 -1 23 9 10 10 9 10 -8z m-242 -14
c3 -5 2 -12 -3 -15 -5 -3 -9 1 -9 9 0 17 3 19 12 6z m-2205 -5 c0 -2 -8 -10
-17 -17 -16 -13 -17 -12 -4 4 13 16 21 21 21 13z m35 -6 c3 -6 -1 -7 -9 -4
-18 7 -21 14 -7 14 6 0 13 -4 16 -10z m144 -26 c14 -12 -19 -1 -35 12 -18 14
-18 14 6 3 14 -6 27 -13 29 -15z m-259 6 c0 -5 -4 -10 -10 -10 -5 0 -10 5 -10
10 0 6 5 10 10 10 6 0 10 -4 10 -10z m184 -6 c3 -8 2 -12 -4 -9 -6 3 -10 10
-10 16 0 14 7 11 14 -7z m2221 -13 c-9 -8 -36 -10 -30 -2 2 4 11 8 20 8 8 0
13 -3 10 -6z m80 -1 c-3 -5 -14 -10 -23 -9 -14 0 -13 2 3 9 27 11 27 11 20 0z
m-2357 -25 c-3 -3 -9 2 -12 12 -6 14 -5 15 5 6 7 -7 10 -15 7 -18z m162 5 c0
-5 -5 -10 -11 -10 -5 0 -7 5 -4 10 3 6 8 10 11 10 2 0 4 -4 4 -10z m-232 -13
c14 4 14 3 2 -5 -16 -12 -30 -7 -29 11 0 9 2 9 5 0 3 -7 13 -9 22 -6z m49 -3
c-3 -3 -12 -4 -19 -1 -8 3 -5 6 6 6 11 1 17 -2 13 -5z m200 -14 c1 -11 -2 -22
-8 -25 -5 -3 -6 1 -3 9 4 10 1 16 -7 16 -11 0 -11 3 1 10 8 5 15 10 15 10 1 0
1 -9 2 -20z m-180 -5 c0 -8 -4 -12 -9 -9 -5 3 -6 10 -3 15 9 13 12 11 12 -6z
m44 -2 c13 -16 12 -17 -3 -4 -10 7 -18 15 -18 17 0 8 8 3 21 -13z m56 2 c0 -8
-4 -15 -9 -15 -10 0 -11 14 -1 23 9 10 10 9 10 -8z m40 9 c-3 -3 -12 -4 -19
-1 -8 3 -5 6 6 6 11 1 17 -2 13 -5z m-188 -18 c9 -11 9 -16 0 -22 -8 -4 -9 -3
-5 4 4 7 2 12 -3 12 -6 0 -11 5 -11 10 0 14 5 13 19 -4z m193 -13 c-6 -2 -10
-9 -7 -13 3 -5 -3 -13 -13 -19 -14 -7 -19 -6 -19 4 0 7 7 11 14 8 8 -3 13 -2
12 3 -3 17 1 24 14 23 9 0 9 -2 -1 -6z m-115 -9 c-3 -3 -12 -4 -19 -1 -8 3 -5
6 6 6 11 1 17 -2 13 -5z m208 -13 c-3 -18 18 -37 38 -33 4 1 7 -2 7 -8 0 -14
-7 -13 -35 6 -14 9 -22 20 -19 25 3 5 -1 9 -8 9 -9 0 -9 3 2 10 20 13 19 13
15 -9z m2038 11 c4 9 6 9 6 1 2 -20 -16 -24 -30 -5 -13 15 -12 16 3 4 13 -10
17 -10 21 0z m-2073 -6 c0 -3 -4 -8 -10 -11 -5 -3 -10 -1 -10 4 0 6 5 11 10
11 6 0 10 -2 10 -4z m1877 -11 c0 -8 -4 -12 -9 -9 -4 3 -8 9 -8 15 0 5 4 9 8
9 5 0 9 -7 9 -15z m-2064 -10 c-3 -9 -8 -14 -10 -11 -3 3 -2 9 2 15 9 16 15
13 8 -4z m37 -29 c-7 -7 -14 -6 -22 3 -11 10 -9 11 7 5 18 -7 19 -6 5 12 -14
18 -14 18 3 5 12 -10 15 -17 7 -25z m2213 0 c-4 -5 1 -7 11 -3 9 4 15 3 11 -2
-3 -6 -14 -9 -25 -8 -10 1 -16 5 -13 10 2 4 -1 15 -9 24 -12 15 -11 15 9 3 12
-8 19 -18 16 -24z m-2273 9 c0 -8 -4 -15 -10 -15 -5 0 -7 7 -4 15 4 8 8 15 10
15 2 0 4 -7 4 -15z m2183 0 c-3 -9 -8 -14 -10 -11 -3 3 -2 9 2 15 9 16 15 13
8 -4z m-1953 -5 c0 -5 -2 -10 -4 -10 -3 0 -8 5 -11 10 -3 6 -1 10 4 10 6 0 11
-4 11 -10z m1810 0 c0 -5 -5 -10 -11 -10 -5 0 -7 5 -4 10 3 6 8 10 11 10 2 0
4 -4 4 -10z m-1781 -28 c7 -14 6 -19 -4 -19 -7 0 -11 7 -7 15 4 11 1 13 -8 7
-9 -5 -11 -4 -6 3 10 16 14 15 25 -6z m44 3 c-3 -9 -8 -14 -10 -11 -3 3 -2 9
2 15 9 16 15 13 8 -4z m1897 11 c0 -2 -8 -10 -17 -17 -16 -13 -17 -12 -4 4 13
16 21 21 21 13z m20 -15 c-5 -11 -15 -23 -21 -27 -6 -3 -3 5 6 20 20 30 30 35
15 7z m-2095 -11 c-1 -11 -5 -23 -10 -27 -4 -5 -5 -3 -1 4 3 6 1 15 -5 19 -8
4 -7 9 2 15 8 5 14 9 15 9 0 0 0 -9 -1 -20z m1922 5 c0 -8 -3 -13 -5 -10 -3 3
-10 0 -17 -5 -8 -7 -12 -5 -12 5 0 8 4 12 8 9 4 -2 10 0 14 6 9 14 12 13 12
-5z m-1959 1 c-2 -1 -10 -7 -19 -14 -13 -10 -18 -10 -22 0 -3 8 5 14 20 14 13
1 23 1 21 0z m126 -5 c-7 -8 -54 -9 -59 -2 -2 4 12 7 30 7 19 0 32 -3 29 -5z
m116 -1 c0 -5 -4 -10 -10 -10 -5 0 -10 5 -10 10 0 6 5 10 10 10 6 0 10 -4 10
-10z m1834 -6 c3 -8 2 -12 -4 -9 -6 3 -10 10 -10 16 0 14 7 11 14 -7z m-2072
-11 c-6 -2 -9 -10 -6 -15 4 -7 2 -8 -5 -4 -13 9 -5 26 12 25 9 0 8 -2 -1 -6z
m134 -8 c-1 -8 -5 -17 -8 -21 -5 -4 -4 16 1 34 3 9 9 -1 7 -13z m2014 11 c0
-2 -7 -7 -16 -10 -8 -3 -12 -2 -9 4 6 10 25 14 25 6z m-1933 -12 c-3 -4 -1
-16 5 -28 11 -21 11 -21 -9 -1 -14 14 -17 22 -9 27 14 9 22 10 13 2z m24 -17
c-10 -9 -11 -8 -5 6 3 10 9 15 12 12 3 -3 0 -11 -7 -18z m1716 8 c0 -8 -3 -13
-5 -10 -3 3 -15 -3 -26 -12 -15 -14 -18 -14 -8 -2 6 9 8 20 4 24 -4 5 -2 5 5
1 6 -3 14 -2 18 4 9 14 12 13 12 -5z m-1677 -15 c-12 -23 -16 -24 -26 -8 -4 6
-3 8 3 5 6 -4 13 0 17 8 3 8 8 15 11 15 3 0 1 -9 -5 -20z m1615 -18 c-3 -3
-11 0 -18 7 -9 10 -8 11 6 5 10 -3 15 -9 12 -12z m-1588 -14 c-3 -8 -6 -5 -6
6 -1 11 2 17 5 13 3 -3 4 -12 1 -19z m1791 -9 c-3 -8 -7 -3 -11 10 -4 17 -3
21 5 13 5 -5 8 -16 6 -23z m-2032 7 c3 -8 14 -13 24 -11 14 3 16 -1 12 -18 -5
-18 -7 -19 -10 -4 -2 9 -8 15 -13 11 -5 -3 -12 2 -15 10 -3 9 -10 13 -15 10
-5 -3 -9 0 -9 5 0 16 20 13 26 -3z m116 -4 c4 -12 -1 -18 -13 -18 -12 0 -15 4
-9 12 6 6 7 14 3 17 -3 4 -2 7 4 7 6 0 13 -8 15 -18z m78 -17 c0 -5 -5 -3 -10
5 -5 8 -10 20 -10 25 0 6 5 3 10 -5 5 -8 10 -19 10 -25z m23 20 c-3 -9 -8 -14
-10 -11 -3 3 -2 9 2 15 9 16 15 13 8 -4z m1737 4 c0 -4 -9 -7 -19 -6 -11 0
-18 4 -16 7 6 9 35 8 35 -1z m-1680 -13 c0 -3 -4 -8 -10 -11 -5 -3 -10 -1 -10
4 0 6 5 11 10 11 6 0 10 -2 10 -4z m1735 -6 c-3 -5 -12 -10 -18 -10 -7 0 -6 4
3 10 19 12 23 12 15 0z m-2105 -10 c-8 -5 -19 -10 -25 -10 -5 0 -3 5 5 10 8 5
20 10 25 10 6 0 3 -5 -5 -10z m326 -22 c-9 -12 -16 -19 -16 -15 0 11 24 47 28
42 2 -2 -3 -14 -12 -27z m1571 10 c-3 -8 -6 -5 -6 6 -1 11 2 17 5 13 3 -3 4
-12 1 -19z m166 7 c-3 -9 -8 -14 -10 -11 -3 3 -2 9 2 15 9 16 15 13 8 -4z
m-1673 -5 c0 -5 -4 -10 -10 -10 -5 0 -10 5 -10 10 0 6 5 10 10 10 6 0 10 -4
10 -10z m-276 -16 c3 -8 2 -12 -4 -9 -6 3 -10 10 -10 16 0 14 7 11 14 -7z m55
-17 c0 -9 -2 -8 -6 1 -2 6 -9 9 -14 6 -6 -3 -5 -12 3 -22 8 -10 9 -13 1 -9 -6
4 -14 3 -18 -3 -3 -5 -1 -10 5 -10 6 0 8 -4 5 -10 -3 -5 1 -10 9 -10 9 0 17
-4 17 -10 1 -5 2 -14 3 -19 2 -16 16 -25 16 -10 1 11 3 11 10 -2 5 -9 17 -15
27 -14 27 3 53 16 48 24 -2 4 2 8 10 8 8 0 16 -6 19 -13 3 -9 -1 -11 -11 -7
-11 4 -14 2 -9 -5 5 -8 2 -10 -9 -6 -11 5 -14 2 -9 -10 3 -9 10 -16 15 -16 5
0 9 -5 9 -11 0 -8 -5 -8 -15 1 -11 9 -15 9 -15 1 0 -18 31 -26 41 -10 7 12 9
12 9 0 0 -8 6 -11 16 -7 8 3 13 2 10 -3 -7 -11 -64 -12 -71 0 -4 5 -11 9 -17
9 -7 0 -6 -5 2 -15 23 -28 -1 -36 -32 -10 -16 14 -34 23 -39 19 -8 -5 -13 10
-10 30 1 5 -6 17 -15 27 -16 17 -13 24 9 20 5 -1 6 3 2 9 -3 6 -11 8 -16 5 -5
-4 -17 -1 -26 5 -16 10 -16 11 -1 6 12 -3 15 -1 11 9 -3 8 -10 12 -17 8 -6 -3
-3 3 7 14 9 11 14 23 10 27 -9 9 18 27 29 20 4 -3 8 -11 7 -17z m76 5 c-3 -3
-11 0 -18 7 -9 10 -8 11 6 5 10 -3 15 -9 12 -12z m120 -5 c-11 -6 -21 -5 -28
3 -9 8 -7 9 7 4 13 -5 17 -4 12 4 -5 8 -2 10 10 5 15 -6 15 -7 -1 -16z m63 -2
c1 -13 -2 -26 -6 -29 -6 -3 -8 36 -3 52 3 8 7 -2 9 -23z m1502 17 c0 -5 -7 -9
-15 -9 -8 0 -12 4 -9 9 3 4 9 8 15 8 5 0 9 -4 9 -8z m-43 -17 c0 -8 -4 -12 -9
-9 -5 3 -6 10 -3 15 9 13 12 11 12 -6z m127 -22 c8 -19 2 -16 -25 13 -23 25
-23 26 -2 13 13 -7 25 -19 27 -26z m13 15 c-3 -8 -6 -5 -6 6 -1 11 2 17 5 13
3 -3 4 -12 1 -19z m63 12 c0 -5 -5 -10 -11 -10 -5 0 -7 5 -4 10 3 6 8 10 11
10 2 0 4 -4 4 -10z m-1840 -25 c0 -2 -7 -1 -17 2 -12 5 -14 3 -8 -8 5 -8 4
-11 0 -6 -5 4 -10 14 -11 22 -2 12 2 12 17 5 10 -6 19 -13 19 -15z m1710 21
c0 -2 -8 -10 -17 -17 -16 -13 -17 -12 -4 4 13 16 21 21 21 13z m-1555 -16 c-3
-5 -12 -10 -18 -10 -7 0 -6 4 3 10 19 12 23 12 15 0z m-201 -16 c3 -8 2 -12
-4 -9 -6 3 -10 10 -10 16 0 14 7 11 14 -7z m79 3 c-4 -7 1 -8 13 -3 15 6 17 5
6 -5 -10 -11 -15 -10 -28 2 -13 14 -13 16 0 16 8 0 12 -5 9 -10z m164 -17 c0
-16 -3 -30 -7 -30 -6 0 -7 21 -1 53 3 18 8 4 8 -23z m1631 10 c7 -11 9 -20 4
-20 -4 0 -13 9 -20 20 -7 11 -9 20 -4 20 4 0 13 -9 20 -20z m-251 -5 c0 -8 -4
-12 -9 -9 -5 3 -6 10 -3 15 9 13 12 11 12 -6z m67 -6 c-10 -12 -18 -24 -17
-28 1 -3 0 -8 -2 -9 -2 -2 -3 3 -1 11 2 16 25 47 34 47 3 0 -3 -9 -14 -21z
m-1708 -4 c4 -8 9 -13 13 -11 4 3 12 -4 19 -15 18 -28 5 -23 -30 11 -16 17
-25 30 -18 30 6 0 13 -7 16 -15z m80 3 c4 -7 4 -10 -1 -6 -4 4 -13 0 -20 -9
-9 -13 -14 -13 -20 -3 -5 8 -4 11 2 7 6 -4 13 0 17 8 7 18 13 19 22 3z m61 -8
c1 -11 -2 -20 -7 -20 -6 0 -7 17 -1 38 3 8 7 -1 8 -18z m67 12 c3 -5 -1 -9 -9
-9 -8 0 -15 4 -15 9 0 4 4 8 9 8 6 0 12 -4 15 -8z m1611 -1 c3 -5 2 -12 -3
-15 -5 -3 -9 1 -9 9 0 17 3 19 12 6z m-150 -21 c-3 -5 -12 -10 -18 -10 -7 0
-6 4 3 10 19 12 23 12 15 0z m80 1 c-9 -8 -36 -10 -30 -2 2 4 11 8 20 8 8 0
13 -3 10 -6z m35 -6 c-6 -7 -8 -20 -4 -29 3 -9 2 -16 -3 -16 -5 0 -9 13 -9 28
0 17 5 29 13 29 9 0 10 -4 3 -12z m-1489 -22 c-12 -20 -14 -14 -5 12 4 9 9 14
11 11 3 -2 0 -13 -6 -23z m-55 5 c5 -7 3 -8 -6 -3 -10 6 -12 4 -7 -8 4 -11 2
-14 -9 -10 -11 4 -12 9 -3 19 14 17 16 17 25 2z m104 -23 c0 -5 -5 -3 -10 5
-5 8 -10 20 -10 25 0 6 5 3 10 -5 5 -8 10 -19 10 -25z m-163 -6 c-6 -10 -14
-16 -18 -13 -4 2 -9 -2 -12 -8 -3 -7 -4 -3 -4 8 1 15 6 20 16 16 8 -3 12 -1 8
5 -3 5 0 10 7 10 11 0 12 -4 3 -18z m138 0 c-4 -5 -12 -9 -18 -8 -9 0 -8 2 1
6 6 2 9 10 6 15 -4 7 -2 8 5 4 6 -4 9 -12 6 -17z m-42 -2 c4 3 7 1 7 -5 0 -17
-16 -15 -31 6 -12 15 -12 16 2 5 9 -7 19 -10 22 -6z m102 -6 c3 -5 0 -13 -6
-17 -8 -5 -9 -3 -4 6 6 9 1 10 -16 5 -19 -5 -21 -4 -9 4 19 13 27 14 35 2z
m1375 3 c0 -8 -19 -13 -24 -6 -3 5 1 9 9 9 8 0 15 -2 15 -3z m90 -14 c11 -11
15 -20 9 -20 -8 0 -7 -6 2 -17 12 -14 12 -16 0 -8 -11 6 -13 4 -8 -8 6 -17
-18 -17 -49 1 -15 8 -15 11 5 31 23 23 28 37 9 25 -7 -4 -8 -3 -4 4 10 16 13
15 36 -8z m-1617 -17 c-4 -10 -2 -14 4 -10 5 3 10 0 10 -8 0 -8 -5 -11 -11 -7
-6 3 -17 7 -24 8 -8 2 -17 6 -20 10 -4 4 1 5 10 1 9 -3 19 0 22 9 3 8 8 14 10
14 3 0 2 -7 -1 -17z m183 5 c4 -7 3 -8 -4 -4 -7 4 -12 0 -12 -10 0 -10 -3 -15
-6 -11 -7 6 2 37 10 37 3 0 8 -5 12 -12z m1289 4 c-3 -3 0 -11 6 -19 17 -20 5
-16 -14 5 -15 16 -15 19 -2 19 8 0 13 -3 10 -5z m40 -10 c-3 -3 -11 0 -18 7
-9 10 -8 11 6 5 10 -3 15 -9 12 -12z m-178 -11 c-1 -15 -4 -17 -14 -9 -15 12
-17 22 -3 13 6 -3 10 -1 10 4 0 6 2 11 4 11 3 0 4 -9 3 -19z m58 7 c5 4 5 1 1
-6 -4 -7 -11 -10 -16 -7 -4 3 -10 -1 -13 -7 -3 -7 -4 -3 -4 9 1 15 5 19 13 13
6 -6 15 -6 19 -2z m160 3 c3 -5 0 -13 -6 -17 -7 -4 -9 -3 -5 4 3 5 0 13 -6 15
-9 4 -10 6 -1 6 6 1 14 -3 18 -8z m-1445 -11 c12 -7 10 -9 -8 -7 -12 0 -22 5
-22 9 0 11 12 10 30 -2z m33 -5 c-3 -9 -8 -14 -10 -11 -3 3 -2 9 2 15 9 16 15
13 8 -4z m1157 5 c0 -5 -5 -10 -11 -10 -5 0 -7 5 -4 10 3 6 8 10 11 10 2 0 4
-4 4 -10z m-1107 -15 c-3 -9 -8 -14 -10 -11 -3 3 -2 9 2 15 9 16 15 13 8 -4z
m47 -29 c0 -6 -5 -3 -11 7 -6 9 -15 14 -21 11 -7 -4 -8 -2 -4 5 9 14 36 -3 36
-23z m923 19 c-3 -9 -8 -14 -10 -11 -3 3 -2 9 2 15 9 16 15 13 8 -4z m239 2
c-14 -16 -10 -39 8 -63 14 -18 14 -18 -6 -1 -11 9 -21 25 -21 35 0 17 14 42
24 42 3 0 1 -6 -5 -13z m-387 -6 c3 -5 2 -12 -3 -15 -5 -3 -9 1 -9 9 0 17 3
19 12 6z m79 -6 c-4 -8 -11 -12 -16 -9 -6 4 -5 10 3 15 19 12 19 11 13 -6z
m362 0 c-1 -8 -5 -17 -8 -21 -5 -4 -4 16 1 34 3 9 9 -1 7 -13z m-1431 -5 c-3
-5 -12 -10 -18 -10 -7 0 -6 4 3 10 19 12 23 12 15 0z m1112 -4 c0 -8 -6 -12
-15 -8 -11 4 -13 1 -7 -8 6 -9 4 -11 -5 -5 -10 6 -9 11 5 22 23 16 22 16 22
-1z m56 -4 c14 -15 15 -19 2 -19 -8 0 -11 5 -8 10 4 6 0 8 -10 4 -11 -4 -14
-2 -10 9 7 18 7 18 26 -4z m83 -16 c2 -14 1 -26 -3 -26 -5 0 -9 14 -9 31 -2
35 5 33 12 -5z m61 19 c0 -8 -4 -12 -9 -9 -5 3 -6 10 -3 15 9 13 12 11 12 -6z
m-1214 -8 c3 -8 -1 -14 -8 -14 -7 0 -11 6 -8 14 3 7 6 13 8 13 2 0 5 -6 8 -13z
m-46 -19 c2 -18 0 -20 -7 -8 -12 18 -13 30 -2 30 4 0 9 -10 9 -22z m137 11
c-4 -8 1 -9 17 -5 20 6 21 5 6 -4 -19 -12 -41 -4 -32 11 4 5 8 9 11 9 3 0 2
-5 -2 -11z m581 2 c-3 -5 -1 -12 5 -16 5 -3 10 -11 10 -18 0 -6 -6 -2 -14 8
-13 18 -13 35 0 35 3 0 3 -4 -1 -9z m159 -7 c3 -8 2 -12 -4 -9 -6 3 -10 10
-10 16 0 14 7 11 14 -7z m-256 -19 c-3 -3 -9 2 -12 12 -6 14 -5 15 5 6 7 -7
10 -15 7 -18z m380 11 c12 1 22 -2 22 -7 0 -13 -54 -3 -58 12 -2 9 0 10 5 4 4
-6 18 -10 31 -9z m-902 -8 c5 -7 3 -8 -6 -3 -10 6 -12 4 -7 -8 4 -11 2 -14 -9
-10 -11 4 -12 9 -3 19 14 17 16 17 25 2z m115 -5 c12 -16 12 -17 -2 -6 -9 7
-19 10 -22 6 -4 -3 -7 -1 -7 5 0 17 16 15 31 -5z m482 3 c4 -10 0 -12 -15 -8
-15 4 -17 7 -6 13 17 11 15 11 21 -5z m162 5 c3 -5 2 -12 -3 -15 -5 -3 -9 1
-9 9 0 17 3 19 12 6z m239 -7 c3 -8 2 -12 -4 -9 -6 3 -10 10 -10 16 0 14 7 11
14 -7z m66 -9 c14 -19 14 -19 -2 -6 -10 7 -18 18 -18 24 0 6 1 8 3 6 1 -2 9
-13 17 -24z m106 13 c3 -4 -1 -5 -10 -4 -8 1 -18 5 -22 8 -3 4 1 5 10 4 8 -1
18 -5 22 -8z m144 4 c0 -4 -13 -7 -29 -7 -16 -1 -28 2 -26 5 5 9 55 11 55 2z
m117 -7 c0 -8 -7 -15 -15 -15 -12 0 -12 3 -2 15 7 8 13 15 15 15 1 0 2 -7 2
-15z m-1607 1 c0 -3 -4 -8 -10 -11 -5 -3 -10 -1 -10 4 0 6 5 11 10 11 6 0 10
-2 10 -4z m37 -10 c0 -8 -6 -12 -15 -8 -9 3 -13 1 -9 -5 3 -5 -1 -10 -10 -10
-12 0 -11 5 7 19 27 22 27 22 27 4z m594 -9 c-10 -9 -11 -8 -5 6 3 10 9 15 12
12 3 -3 0 -11 -7 -18z m-384 7 c-3 -3 -12 -4 -19 -1 -8 3 -5 6 6 6 11 1 17 -2
13 -5z m473 -4 c-14 -9 -7 -14 13 -11 5 1 6 -3 2 -9 -5 -8 -11 -8 -21 1 -15
12 -10 29 9 29 7 0 6 -4 -3 -10z m269 -11 c-12 -24 -26 -31 -26 -14 0 8 5 11
10 8 6 -4 8 0 5 9 -4 8 0 15 7 15 10 0 11 -5 4 -18z m-912 -4 c0 -8 -4 -12 -9
-9 -5 3 -6 10 -3 15 9 13 12 11 12 -6z m123 -6 c0 -5 -4 -9 -8 -9 -5 0 -9 7
-9 15 0 8 4 12 9 9 4 -3 8 -9 8 -15z m385 3 c-3 -3 -11 0 -18 7 -9 10 -8 11 6
5 10 -3 15 -9 12 -12z m97 11 c-6 -2 -10 -9 -6 -14 3 -5 0 -9 -5 -9 -12 0 -14
13 -4 23 3 4 11 7 17 6 6 0 5 -3 -2 -6z m-345 -25 c-3 -8 -6 -5 -6 6 -1 11 2
17 5 13 3 -3 4 -12 1 -19z m100 7 c0 -8 -4 -12 -9 -9 -5 3 -6 10 -3 15 9 13
12 11 12 -6z m379 3 c3 -4 -1 -5 -10 -4 -8 1 -18 5 -22 8 -3 4 1 5 10 4 8 -1
18 -5 22 -8z m220 -37 c-1 -27 -4 -48 -7 -46 -3 2 -4 21 -3 42 2 47 3 53 7 53
2 0 3 -22 3 -49z m160 37 c2 -3 -14 -5 -36 -4 -22 0 -40 4 -40 8 0 7 68 3 76
-4z m294 2 c0 -5 -4 -10 -10 -10 -5 0 -10 5 -10 10 0 6 5 10 10 10 6 0 10 -4
10 -10z m-1435 -10 c3 -6 -1 -7 -9 -4 -18 7 -21 14 -7 14 6 0 13 -4 16 -10z
m220 -17 c-1 -16 3 -31 9 -35 6 -4 1 -6 -11 -5 -12 0 -19 6 -15 12 4 5 7 18 8
28 2 22 3 27 7 27 2 0 3 -12 2 -27z m358 14 c3 -8 -1 -14 -8 -14 -7 0 -11 6
-8 14 6 16 10 16 16 0z m822 -8 c-4 -5 -12 -9 -18 -8 -9 0 -8 2 1 6 6 2 9 10
6 15 -4 7 -2 8 5 4 6 -4 9 -12 6 -17z m-1320 -15 c9 -1 20 -5 23 -8 8 -9 -30
-2 -45 7 -7 5 -13 14 -13 20 0 8 4 7 9 -2 5 -8 17 -16 26 -17z m35 20 c0 -8
-19 -13 -24 -6 -3 5 1 9 9 9 8 0 15 -2 15 -3z m222 -11 c1 -4 7 -13 15 -18 12
-9 11 -11 -6 -11 -11 0 -17 5 -14 10 4 5 0 7 -9 4 -8 -4 -15 -1 -15 7 0 8 7
11 15 7 11 -4 13 -1 7 9 -4 8 -5 11 -1 7 4 -3 8 -10 8 -15z m85 11 c-3 -3 -12
-4 -19 -1 -8 3 -5 6 6 6 11 1 17 -2 13 -5z m453 1 c0 -1 -10 -10 -22 -21 -14
-12 -18 -13 -10 -3 6 9 10 18 7 21 -3 2 2 5 10 5 8 0 15 -1 15 -2z m68 -15
c-7 -10 -14 -17 -17 -15 -4 4 18 35 25 35 2 0 -1 -9 -8 -20z m359 3 c0 -9 -4
-10 -14 -2 -7 6 -13 12 -13 14 0 1 6 2 13 2 8 0 14 -6 14 -14z m45 -2 c-3 -9
-1 -12 6 -7 8 5 10 1 5 -10 -4 -11 -8 -13 -11 -6 -2 7 -9 9 -15 5 -7 -3 -9 -3
-5 2 4 4 4 13 -2 19 -6 8 -3 12 9 12 12 0 17 -5 13 -15z m168 3 c-15 -18 -27
-18 -27 -1 0 7 9 14 19 14 16 2 17 -1 8 -13z m-1033 -13 c-1 -13 -5 -17 -12
-11 -5 4 -25 7 -43 5 -18 -1 -34 1 -37 4 -2 4 16 7 40 6 25 0 45 3 45 7 0 4 2
8 4 8 3 0 4 -9 3 -19z m283 15 c0 -2 -8 -10 -17 -17 -16 -13 -17 -12 -4 4 13
16 21 21 21 13z m54 -25 c-2 -3 -12 3 -22 13 -16 17 -16 18 5 5 12 -7 20 -15
17 -18z m285 -15 c-2 -2 -13 8 -23 22 l-19 27 24 -22 c12 -12 21 -24 18 -27z
m58 31 c0 -8 -6 -14 -14 -14 -9 0 -10 4 -2 14 6 7 12 13 14 13 1 0 2 -6 2 -13z
m71 -7 c-15 -24 -25 -26 -25 -5 0 8 4 12 8 9 4 -2 10 0 14 6 3 5 8 10 11 10 2
0 -1 -9 -8 -20z m-1111 -12 c-3 -8 -6 -5 -6 6 -1 11 2 17 5 13 3 -3 4 -12 1
-19z m582 19 c-2 -1 -13 -9 -24 -17 -19 -14 -19 -14 -6 3 7 9 18 17 24 17 6 0
8 -1 6 -3z m576 -15 c-3 -3 -11 0 -18 7 -9 10 -8 11 6 5 10 -3 15 -9 12 -12z
m-730 -10 c-3 -3 -11 0 -18 7 -9 10 -8 11 6 5 10 -3 15 -9 12 -12z m238 5 c3
-7 -3 -13 -14 -13 -13 0 -15 3 -7 13 6 7 12 13 13 13 2 0 5 -6 8 -13z m261
-29 c-16 -31 -20 -33 -30 -16 -4 6 -3 8 3 5 11 -7 26 20 18 32 -2 4 2 8 10 8
12 0 12 -5 -1 -29z m416 26 c0 -8 -19 -13 -24 -6 -3 5 1 9 9 9 8 0 15 -2 15
-3z m-1396 -19 c3 -8 1 -15 -4 -15 -6 0 -10 7 -10 15 0 8 2 15 4 15 2 0 6 -7
10 -15z m108 0 c2 3 5 -2 5 -10 0 -8 -6 -16 -13 -19 -9 -3 -11 1 -7 11 4 10 2
14 -4 10 -5 -3 -10 0 -10 8 0 10 4 12 12 5 7 -5 14 -8 17 -5z m474 -7 c12 -14
13 -18 3 -10 -9 6 -18 10 -21 7 -2 -3 -5 2 -5 10 0 19 0 19 23 -7z m191 7 c0
-8 -5 -11 -10 -8 -7 4 -8 -1 -3 -13 6 -15 5 -16 -5 -7 -10 10 -9 15 1 28 15
19 17 19 17 0z m87 -4 c13 -14 14 -21 5 -27 -8 -5 -10 -3 -4 6 6 9 4 12 -6 8
-10 -4 -15 1 -15 13 0 23 -1 23 20 0z m269 6 c4 3 7 1 7 -5 0 -17 -16 -15 -31
6 -12 15 -12 16 2 5 9 -7 19 -10 22 -6z m65 -1 c-7 -8 -15 -12 -17 -11 -5 6
10 25 20 25 5 0 4 -6 -3 -14z m-904 -6 c-8 -7 -74 -7 -74 0 0 4 18 7 39 6 22
0 37 -3 35 -6z m197 -7 c13 -16 12 -17 -3 -4 -17 13 -22 21 -14 21 2 0 10 -8
17 -17z m-451 -13 c0 -5 -4 -10 -10 -10 -5 0 -10 5 -10 10 0 6 5 10 10 10 6 0
10 -4 10 -10z m115 2 c-3 -3 0 -11 7 -19 6 -7 9 -15 7 -17 -2 -2 -12 6 -21 18
-13 18 -14 23 -2 23 8 0 12 -3 9 -5z m196 -9 c13 -16 12 -17 -3 -4 -10 7 -18
15 -18 17 0 8 8 3 21 -13z m120 0 c13 -16 12 -17 -3 -4 -17 13 -22 21 -14 21
2 0 10 -8 17 -17z m166 0 c0 -9 -4 -10 -14 -2 -7 6 -13 12 -13 14 0 1 6 2 13
2 8 0 14 -6 14 -14z m35 -3 c-2 -7 3 -10 11 -7 7 3 14 -1 14 -8 0 -10 -5 -11
-17 -5 -10 5 -21 6 -26 2 -5 -4 -3 0 4 10 9 11 9 18 2 21 -6 3 -5 4 2 3 7 -2
12 -9 10 -16z m263 10 c-3 -5 -12 -10 -18 -10 -7 0 -6 4 3 10 19 12 23 12 15
0z m56 -17 c-12 -20 -14 -14 -5 12 4 9 9 14 11 11 3 -2 0 -13 -6 -23z m-916 7
c-3 -5 -12 -10 -18 -10 -7 0 -6 4 3 10 19 12 23 12 15 0z m150 -10 c10 -11 16
-20 13 -20 -3 0 -13 9 -23 20 -10 11 -16 20 -13 20 3 0 13 -9 23 -20z m192 7
c0 -8 -6 -14 -14 -14 -9 0 -10 4 -2 14 6 7 12 13 14 13 1 0 2 -6 2 -13z m-98
0 c-2 -1 -13 -9 -24 -17 -19 -14 -19 -14 -6 3 7 9 18 17 24 17 6 0 8 -1 6 -3z
m491 -8 c0 -4 -9 -7 -19 -6 -11 0 -18 4 -16 7 6 9 35 8 35 -1z m37 -11 c-3 -8
-6 -5 -6 6 -1 11 2 17 5 13 3 -3 4 -12 1 -19z m53 12 c0 -5 -2 -10 -4 -10 -2
0 -12 -3 -22 -7 -16 -6 -17 -5 -4 10 17 19 30 22 30 7z m70 -7 c0 -2 -6 -3
-12 -2 -18 3 -48 -11 -48 -22 0 -6 8 -6 19 0 10 6 28 9 40 6 13 -2 25 3 31 16
6 10 16 19 23 18 9 0 9 -2 -1 -6 -6 -2 -9 -9 -6 -14 3 -6 -2 -21 -10 -35 -14
-20 -20 -23 -37 -14 -11 6 -17 15 -14 21 4 5 1 9 -4 9 -6 0 -11 -5 -11 -11 0
-5 -4 -8 -9 -5 -4 3 -16 -3 -26 -14 -17 -19 -19 -19 -37 -4 -24 23 -23 35 3
31 12 -2 32 6 46 19 20 19 53 24 53 7z m-222 -1 c15 12 16 11 3 -4 -14 -19
-32 -15 -30 5 0 8 2 8 6 -1 4 -10 8 -10 21 0z m532 2 c0 -8 -19 -13 -24 -6 -3
5 1 9 9 9 8 0 15 -2 15 -3z m-1184 -16 c4 -6 3 -8 -4 -4 -13 8 -13 -34 1 -51
11 -15 41 -18 32 -3 -3 6 -1 10 5 10 6 0 9 -8 6 -18 -4 -13 0 -18 15 -19 18
-2 19 0 7 15 -12 15 -11 16 5 3 20 -16 46 -57 29 -47 -5 3 -13 -1 -16 -10 -6
-16 -27 -16 -28 1 0 16 -20 35 -30 29 -5 -3 -15 0 -23 6 -12 10 -16 9 -21 -4
-5 -14 -8 -14 -21 -1 -8 8 -20 15 -27 15 -7 0 -13 6 -13 14 0 8 6 12 13 9 6
-2 15 1 19 6 3 6 11 8 17 5 6 -4 9 -1 6 7 -5 13 8 49 17 49 2 0 7 -5 11 -12z
m295 -5 c13 -16 12 -17 -3 -4 -10 7 -18 15 -18 17 0 8 8 3 21 -13z m88 -5 c-5
-10 -15 -18 -22 -17 -9 0 -9 2 1 6 6 2 12 9 12 14 0 6 -5 7 -12 3 -6 -4 -8 -3
-5 3 3 5 13 10 21 10 11 0 13 -5 5 -19z m37 -4 c1 -9 0 -13 -4 -10 -3 4 -7 14
-8 22 -1 9 0 13 4 10 3 -4 7 -14 8 -22z m121 11 c0 -8 -4 -12 -9 -9 -4 3 -8 9
-8 15 0 5 4 9 8 9 5 0 9 -7 9 -15z m198 -14 c2 -12 0 -19 -6 -16 -5 4 -9 1 -9
-4 0 -6 5 -11 11 -11 5 0 7 -5 3 -12 -6 -9 -9 -9 -12 0 -3 10 -7 10 -20 0 -12
-10 -16 -10 -19 -1 -3 9 -11 9 -28 -3 -13 -9 -29 -13 -35 -9 -19 12 -50 14
-56 4 -4 -7 -10 -6 -18 0 -9 8 -20 3 -41 -19 l-28 -29 -17 22 c-12 15 -15 26
-9 34 7 8 4 15 -8 22 -10 6 -13 11 -8 11 6 0 16 -5 22 -11 8 -8 17 -8 33 1 18
10 20 14 9 22 -12 8 -11 9 1 5 8 -2 14 -13 12 -23 -3 -15 -1 -16 9 -7 10 10
16 10 27 0 13 -10 14 -8 8 13 -6 19 -5 21 3 10 7 -10 11 -11 11 -2 0 6 5 12
11 12 5 0 7 -4 4 -10 -3 -5 -4 -10 -1 -10 2 0 13 -3 23 -7 16 -6 16 -5 4 10
-7 10 -9 17 -3 17 6 0 12 -6 15 -12 3 -9 11 -7 28 7 13 11 18 13 12 5 -8 -10
-9 -21 -3 -30 6 -8 10 -12 11 -7 1 4 3 12 4 17 1 6 3 15 4 20 0 6 6 10 12 10
8 0 8 -4 0 -14 -7 -8 -8 -17 -3 -20 5 -3 15 6 22 19 15 28 19 27 25 -4z m-395
-25 c0 -6 -7 -1 -15 10 -8 10 -15 23 -15 28 0 6 7 1 15 -10 8 -10 15 -23 15
-28z m115 34 c4 -6 11 -8 16 -5 5 4 9 1 9 -4 0 -15 -11 -13 -34 4 -11 8 -15
15 -9 15 7 0 15 -5 18 -10z m-385 -11 c0 -4 -6 -9 -13 -12 -8 -3 -14 0 -14 7
0 7 6 13 14 13 7 0 13 -4 13 -8z m148 -1 c-2 -6 -10 -13 -16 -14 -7 -1 -8 0
-2 3 5 2 8 9 4 14 -3 5 0 9 6 9 7 0 10 -5 8 -12z m-206 -20 c-7 -7 -12 -8 -12
-2 0 14 12 26 19 19 2 -3 -1 -11 -7 -17z m85 -8 c-1 -11 -5 -20 -9 -20 -3 0
-6 9 -5 20 1 11 5 20 9 20 3 0 6 -9 5 -20z m163 -14 c0 -6 -7 -3 -14 6 -7 10
-17 14 -21 10 -5 -4 -5 -1 -1 6 6 10 11 10 22 1 8 -6 14 -17 14 -23z"/>
<path d="M1400 2820 c-16 -10 -9 -13 33 -13 9 0 25 -12 34 -28 18 -31 28 -35
38 -19 4 6 10 8 15 5 4 -3 13 1 19 9 8 10 8 16 -3 26 -13 10 -15 8 -11 -12 4
-21 3 -21 -9 -6 -9 13 -16 14 -24 6 -8 -8 -16 -5 -31 13 -11 13 -20 20 -21 15
0 -5 -6 -4 -13 2 -8 7 -18 7 -27 2z"/>
<path d="M2034 2613 c2 -10 6 -17 10 -16 15 3 16 11 2 22 -12 10 -14 9 -12 -6z"/>
<path d="M2149 2573 c-12 -16 -12 -17 2 -5 13 10 19 9 29 -3 10 -12 10 -15 -1
-15 -10 0 -10 -3 -1 -12 8 -8 15 -9 22 -2 7 7 3 17 -13 32 -23 22 -25 22 -38
5z"/>
<path d="M2316 2512 c-7 -12 12 -38 21 -28 4 5 2 11 -5 13 -6 3 -10 9 -6 14 3
5 3 9 0 9 -3 0 -7 -4 -10 -8z"/>
<path d="M2390 2466 c0 -2 7 -7 16 -10 8 -3 12 -2 9 4 -6 10 -25 14 -25 6z"/>
<path d="M580 2465 c-12 -13 -26 -22 -30 -20 -4 3 -13 -2 -20 -10 -10 -12 -8
-13 11 -10 12 3 29 -1 38 -8 12 -9 13 -9 7 1 -11 19 3 35 20 21 10 -9 14 -9
14 0 0 6 -7 14 -15 17 -12 5 -13 10 -4 20 19 24 4 15 -21 -11z"/>
<path d="M453 2375 c0 -8 4 -12 9 -9 5 3 6 10 3 15 -9 13 -12 11 -12 -6z"/>
<path d="M205 2190 c-3 -5 -3 -10 1 -10 4 0 0 -8 -9 -18 -10 -11 -13 -23 -8
-31 6 -10 10 -10 16 -1 4 6 4 14 1 17 -3 4 1 14 10 24 9 10 11 19 5 23 -5 4
-12 2 -16 -4z"/>
<path d="M2707 1854 c-9 -9 12 -46 23 -39 4 3 10 0 12 -7 2 -6 12 -12 21 -14
14 -2 15 1 6 17 -5 11 -15 16 -21 13 -8 -5 -9 -1 -4 11 5 15 4 16 -8 6 -11 -9
-16 -9 -22 0 -4 8 -3 9 4 5 7 -4 12 -2 12 3 0 12 -13 15 -23 5z"/>
<path d="M2780 1771 c-9 -18 -8 -21 9 -18 29 4 34 12 17 26 -12 10 -17 8 -26
-8z"/>
<path d="M2845 1760 c-3 -6 1 -7 9 -4 18 7 21 14 7 14 -6 0 -13 -4 -16 -10z"/>
<path d="M2869 1723 c-12 -16 -12 -17 2 -6 9 7 20 9 24 5 5 -4 5 -1 1 6 -9 16
-11 15 -27 -5z"/>
<path d="M115 1470 c-4 -6 -10 -8 -14 -6 -4 3 -8 -1 -8 -9 0 -20 7 -19 23 3
12 14 13 15 8 1 -3 -10 -1 -20 5 -24 7 -3 11 2 11 14 0 23 -16 36 -25 21z"/>
<path d="M86 1421 c-4 -5 -2 -12 3 -15 5 -4 12 -2 15 3 4 5 2 12 -3 15 -5 4
-12 2 -15 -3z"/>
<path d="M112 1368 c2 -6 10 -14 16 -16 7 -2 10 2 6 12 -7 18 -28 22 -22 4z"/>
<path d="M100 1245 c7 -9 15 -13 17 -11 7 7 -7 26 -19 26 -6 0 -6 -6 2 -15z"/>
<path d="M73 1095 c0 -8 4 -15 9 -15 4 0 8 4 8 9 0 6 -4 12 -8 15 -5 3 -9 -1
-9 -9z"/>
<path d="M2777 1057 c9 -9 17 -16 17 -15 1 2 7 10 13 18 10 13 8 16 -17 15
-27 0 -28 -1 -13 -18z"/>
<path d="M2712 1013 c-9 -4 -10 -8 -2 -18 12 -14 -9 -34 -70 -68 -27 -14 -30
-20 -20 -32 11 -14 15 -14 31 1 11 10 19 14 19 9 0 -4 7 -2 15 5 9 7 14 19 11
25 -2 7 9 25 25 41 16 15 29 33 28 38 0 6 -3 5 -6 -3 -3 -7 -8 -9 -12 -4 -3 6
-12 8 -19 6z m-24 -84 c-2 -6 -6 -9 -10 -7 -3 2 -15 -6 -27 -16 -12 -11 -21
-14 -21 -9 0 11 29 27 43 25 4 -1 7 3 7 8 0 6 3 10 6 10 3 0 4 -5 2 -11z"/>
<path d="M82 1001 c-11 -7 -11 -9 1 -14 9 -3 18 1 21 9 6 16 -2 18 -22 5z"/>
<path d="M81 935 c-1 -17 16 -38 33 -41 12 -2 14 2 6 16 -5 9 -6 21 -2 26 4 5
0 3 -10 -4 -13 -10 -17 -10 -21 0 -3 7 -6 9 -6 3z"/>
<path d="M140 855 c0 -2 10 -10 23 -16 20 -11 21 -11 8 4 -13 16 -31 23 -31
12z"/>
<path d="M187 825 c-12 -8 -14 -15 -8 -20 6 -3 11 -1 11 6 0 8 5 6 13 -5 12
-16 13 -16 14 3 2 27 -8 32 -30 16z"/>
<path d="M490 507 c14 -16 24 -32 23 -35 -1 -4 13 -16 30 -27 24 -14 29 -15
19 -4 -10 13 -9 19 3 29 21 17 19 25 -5 27 -16 1 -20 -2 -15 -18 4 -12 2 -19
-6 -19 -7 0 -9 3 -6 6 3 4 2 15 -4 26 -6 11 -13 17 -16 14 -4 -3 -16 2 -27 11
-14 12 -13 9 4 -10z"/>
<path d="M2323 463 c-18 -6 -16 -30 1 -36 11 -4 13 -1 9 10 -4 10 -2 14 4 10
5 -3 10 0 10 8 0 16 -4 17 -24 8z"/>
<path d="M1840 170 c-6 -11 -8 -20 -6 -20 3 0 10 9 16 20 6 11 8 20 6 20 -3 0
-10 -9 -16 -20z"/>
<path d="M1710 164 c0 -1 6 -7 14 -13 10 -8 16 -8 24 2 9 10 6 13 -13 13 -14
0 -25 -1 -25 -2z"/>
<path d="M896 132 c-3 -3 -1 -11 5 -19 8 -9 15 -10 24 -3 9 8 15 8 20 0 3 -5
11 -10 18 -10 14 0 -32 34 -50 36 -6 1 -14 0 -17 -4z m34 -8 c0 -8 -19 -13
-24 -6 -3 5 1 9 9 9 8 0 15 -2 15 -3z"/>
<path d="M996 88 c7 -10 34 -10 34 0 0 4 -9 8 -19 8 -11 0 -17 -4 -15 -8z"/>
<path d="M1516 144 c-5 -13 -9 -14 -20 -5 -9 8 -16 8 -20 2 -4 -6 -13 -8 -21
-5 -7 3 -23 0 -35 -6 -21 -11 -21 -13 -6 -28 14 -15 18 -14 45 12 19 18 31 24
36 16 4 -7 11 -8 18 -2 12 10 30 9 60 -3 10 -4 17 -3 17 5 0 6 4 8 10 5 6 -3
7 1 3 10 -3 9 -9 13 -12 8 -9 -13 -30 -14 -50 -3 -15 7 -20 6 -25 -6z m-68
-30 c-10 -10 -21 -13 -29 -8 -12 7 0 14 41 23 2 1 -3 -6 -12 -15z"/>
<path d="M1636 138 c3 -5 10 -6 15 -3 13 9 11 12 -6 12 -8 0 -12 -4 -9 -9z"/>
<path d="M1430 2869 c0 -5 5 -7 10 -4 6 3 10 8 10 11 0 2 -4 4 -10 4 -5 0 -10
-5 -10 -11z"/>
<path d="M980 2856 c0 -2 8 -10 18 -17 15 -13 16 -12 3 4 -13 16 -21 21 -21
13z"/>
<path d="M1497 2849 c7 -7 15 -10 18 -7 3 3 -2 9 -12 12 -14 6 -15 5 -6 -5z"/>
<path d="M1556 2828 c3 -4 11 -5 19 -1 21 7 19 12 -4 10 -11 0 -18 -5 -15 -9z"/>
<path d="M950 2810 c0 -5 5 -10 11 -10 5 0 7 5 4 10 -3 6 -8 10 -11 10 -2 0
-4 -4 -4 -10z"/>
<path d="M1022 2804 c-14 -16 -5 -18 17 -5 7 5 9 11 5 14 -5 3 -15 -1 -22 -9z"/>
<path d="M1676 2803 c-6 -14 -5 -15 5 -6 7 7 10 15 7 18 -3 3 -9 -2 -12 -12z"/>
<path d="M1636 2793 c-6 -14 -5 -15 5 -6 7 7 10 15 7 18 -3 3 -9 -2 -12 -12z"/>
<path d="M985 2780 c3 -5 -3 -13 -12 -19 -10 -6 -13 -11 -6 -11 6 0 15 5 18
10 3 6 12 10 18 10 7 -1 2 -9 -11 -20 -13 -10 -29 -17 -36 -14 -8 3 -17 1 -21
-5 -3 -6 -11 -11 -18 -11 -8 0 -8 3 1 12 15 15 15 28 0 28 -6 0 -8 -3 -5 -7 4
-3 0 -14 -9 -24 -15 -16 -14 -17 13 -13 15 3 38 6 51 6 12 1 22 5 22 9 0 5 9
6 20 4 11 -2 18 0 15 4 -5 9 13 29 28 30 4 1 6 4 5 9 -4 10 -21 3 -30 -11 -6
-9 -8 -9 -8 -1 0 7 -9 14 -20 17 -11 3 -18 1 -15 -3z"/>
<path d="M1690 2780 c-9 -6 -10 -10 -3 -10 6 0 15 5 18 10 8 12 4 12 -15 0z"/>
<path d="M1721 2764 c0 -11 3 -14 6 -6 3 7 2 16 -1 19 -3 4 -6 -2 -5 -13z"/>
<path d="M1770 2776 c0 -2 7 -7 16 -10 8 -3 12 -2 9 4 -6 10 -25 14 -25 6z"/>
<path d="M1746 2743 c2 -7 -1 -15 -6 -18 -6 -4 -10 -1 -10 4 0 15 -17 14 -23
-1 -3 -9 6 -13 28 -14 28 -1 33 2 33 23 0 16 -3 20 -8 13 -4 -7 -10 -8 -12 -4
-3 5 -3 4 -2 -3z"/>
<path d="M1783 2731 c0 -11 5 -18 9 -15 4 3 5 11 1 19 -7 21 -12 19 -10 -4z"/>
<path d="M1817 2719 c-9 -6 -15 -14 -13 -18 3 -4 -9 -5 -27 -3 -18 3 -28 1
-24 -4 5 -5 12 -9 15 -9 4 -1 20 -4 36 -9 22 -5 26 -10 16 -16 -9 -5 -5 -8 12
-7 17 1 24 7 23 17 -2 8 -4 18 -4 23 -1 4 -6 7 -12 7 -5 0 -7 -4 -4 -10 3 -5
2 -10 -4 -10 -17 0 -18 25 -2 37 20 15 12 16 -12 2z"/>
<path d="M1930 2709 c0 -5 5 -7 10 -4 6 3 10 8 10 11 0 2 -4 4 -10 4 -5 0 -10
-5 -10 -11z"/>
<path d="M2007 2709 c7 -7 15 -10 18 -7 3 3 -2 9 -12 12 -14 6 -15 5 -6 -5z"/>
<path d="M940 2699 c0 -5 5 -7 10 -4 6 3 10 8 10 11 0 2 -4 4 -10 4 -5 0 -10
-5 -10 -11z"/>
<path d="M1949 2693 c-13 -16 -12 -17 4 -4 9 7 17 15 17 17 0 8 -8 3 -21 -13z"/>
<path d="M730 2670 c0 -5 5 -10 11 -10 5 0 7 5 4 10 -3 6 -8 10 -11 10 -2 0
-4 -4 -4 -10z"/>
<path d="M2070 2670 c-9 -6 -10 -10 -3 -10 6 0 15 5 18 10 8 12 4 12 -15 0z"/>
<path d="M759 2655 c-1 -3 -3 -9 -4 -15 -1 -5 -4 -13 -5 -17 -1 -5 -2 -11 -1
-15 1 -8 -14 -11 -39 -9 -13 2 -13 1 0 -8 8 -5 18 -7 24 -4 5 3 6 1 2 -6 -4
-6 -16 -9 -26 -6 -21 7 -36 -10 -19 -21 8 -4 9 -3 5 4 -4 7 -3 12 2 12 6 0 13
-8 16 -17 11 -28 34 5 38 55 1 7 7 11 15 8 10 -4 11 -1 4 13 -6 10 -7 21 -4
25 3 3 3 6 0 6 -4 0 -8 -2 -8 -5z"/>
<path d="M705 2630 c-3 -6 1 -7 9 -4 18 7 21 14 7 14 -6 0 -13 -4 -16 -10z"/>
<path d="M2182 2615 c15 -16 20 -17 30 -6 11 11 10 13 0 7 -7 -4 -21 -2 -30 5
-15 12 -15 11 0 -6z"/>
<path d="M2234 2613 c3 -3 17 -7 32 -9 14 -1 23 0 20 3 -3 4 -18 8 -32 9 -14
2 -24 0 -20 -3z"/>
<path d="M610 2590 c0 -5 5 -10 11 -10 5 0 7 5 4 10 -3 6 -8 10 -11 10 -2 0
-4 -4 -4 -10z"/>
<path d="M670 2589 c0 -5 5 -7 10 -4 6 3 10 8 10 11 0 2 -4 4 -10 4 -5 0 -10
-5 -10 -11z"/>
<path d="M2326 2571 c-3 -5 1 -11 9 -14 9 -4 12 -1 8 9 -6 16 -10 17 -17 5z"/>
<path d="M2410 2555 c0 -5 5 -17 10 -25 5 -8 10 -10 10 -5 0 6 -5 17 -10 25
-5 8 -10 11 -10 5z"/>
<path d="M2424 2498 c3 -15 26 -23 26 -8 0 6 -4 9 -9 6 -5 -4 -12 -1 -14 4 -3
6 -4 5 -3 -2z"/>
<path d="M396 2401 c4 -17 3 -21 -6 -16 -9 5 -11 4 -6 -4 4 -6 12 -9 17 -6 5
4 9 2 9 -2 0 -5 -10 -14 -21 -22 -20 -12 -21 -11 -15 6 6 16 6 17 -9 2 -17
-17 -29 -75 -17 -83 16 -10 36 14 37 41 0 21 5 28 20 28 22 1 22 14 -1 54 -14
25 -14 25 -8 2z m-22 -82 c-3 -5 -10 -7 -15 -3 -5 3 -7 10 -3 15 3 5 10 7 15
3 5 -3 7 -10 3 -15z"/>
<path d="M355 2390 c3 -5 8 -10 11 -10 2 0 4 5 4 10 0 6 -5 10 -11 10 -5 0 -7
-4 -4 -10z"/>
<path d="M335 2370 c-3 -5 -1 -10 4 -10 6 0 11 5 11 10 0 6 -2 10 -4 10 -3 0
-8 -4 -11 -10z"/>
<path d="M273 2345 c0 -8 4 -12 9 -9 5 3 6 10 3 15 -9 13 -12 11 -12 -6z"/>
<path d="M226 2332 c-3 -5 1 -9 9 -9 8 0 12 4 9 9 -3 4 -7 8 -9 8 -2 0 -6 -4
-9 -8z"/>
<path d="M244 2304 c-18 -14 -18 -15 4 -4 12 6 22 13 22 15 0 8 -5 6 -26 -11z"/>
<path d="M2550 2311 c0 -5 8 -15 18 -22 15 -12 16 -12 5 2 -7 9 -10 19 -6 22
3 4 1 7 -5 7 -7 0 -12 -4 -12 -9z"/>
<path d="M210 2286 c14 -18 13 -19 -2 -13 -10 3 -19 3 -22 -1 -3 -4 4 -8 14
-9 27 -2 33 12 12 28 -16 13 -16 13 -2 -5z"/>
<path d="M146 2235 c-11 -8 -15 -15 -9 -15 6 0 16 7 23 15 16 19 11 19 -14 0z"/>
<path d="M2615 2239 c-4 -6 -5 -12 -2 -15 2 -3 7 2 10 11 7 17 1 20 -8 4z"/>
<path d="M110 2206 c0 -2 8 -10 18 -17 15 -13 16 -12 3 4 -13 16 -21 21 -21
13z"/>
<path d="M2640 2190 c-9 -6 -10 -10 -3 -10 6 0 15 5 18 10 8 12 4 12 -15 0z"/>
<path d="M96 2143 c-4 -9 -3 -20 1 -24 4 -4 9 3 9 17 2 28 -1 31 -10 7z"/>
<path d="M100 2085 c-11 -13 -10 -14 4 -9 9 3 16 10 16 15 0 13 -6 11 -20 -6z"/>
<path d="M2673 2059 c-2 -23 3 -25 10 -4 4 8 3 16 -1 19 -4 3 -9 -4 -9 -15z"/>
<path d="M2690 2006 c0 -8 4 -17 9 -20 5 -4 7 3 4 14 -6 23 -13 26 -13 6z"/>
<path d="M75 1970 c-3 -5 -1 -10 4 -10 6 0 11 5 11 10 0 6 -2 10 -4 10 -3 0
-8 -4 -11 -10z"/>
<path d="M147 1967 c-3 -8 1 -14 8 -14 7 0 11 6 8 14 -3 7 -6 13 -8 13 -2 0
-5 -6 -8 -13z"/>
<path d="M2708 1943 c7 -3 16 -2 19 1 4 3 -2 6 -13 5 -11 0 -14 -3 -6 -6z"/>
<path d="M68 1908 c5 -5 16 -8 23 -6 8 3 3 7 -10 11 -17 4 -21 3 -13 -5z"/>
<path d="M2785 1886 c10 -14 19 -26 22 -26 7 0 -17 39 -28 46 -6 3 -3 -5 6
-20z"/>
<path d="M2834 1878 c-19 -23 -19 -23 2 -5 11 9 24 14 29 10 4 -5 5 -2 1 5 -9
16 -10 16 -32 -10z"/>
<path d="M66 1871 c-4 -5 3 -7 14 -4 23 6 26 13 6 13 -8 0 -17 -4 -20 -9z"/>
<path d="M79 1843 c-13 -16 -12 -17 4 -4 16 13 21 21 13 21 -2 0 -10 -8 -17
-17z"/>
<path d="M2880 1856 c0 -2 8 -10 18 -17 15 -13 16 -12 3 4 -13 16 -21 21 -21
13z"/>
<path d="M2854 1828 c-4 -6 -3 -8 4 -4 5 3 12 1 14 -6 3 -8 6 -9 11 -1 4 6 0
13 -8 17 -8 3 -17 0 -21 -6z"/>
<path d="M140 1813 c1 -16 28 -44 34 -35 3 6 -1 13 -10 16 -8 3 -12 10 -9 16
3 5 1 10 -4 10 -6 0 -11 -3 -11 -7z"/>
<path d="M2900 1810 c-9 -6 -10 -10 -3 -10 6 0 15 5 18 10 8 12 4 12 -15 0z"/>
<path d="M89 1740 c-7 -5 -17 -6 -22 -3 -5 3 -4 -4 2 -15 6 -11 16 -22 23 -25
7 -2 10 -8 6 -12 -4 -4 -16 -2 -25 6 -15 11 -15 10 1 -9 11 -12 24 -21 30 -19
6 2 16 -3 23 -12 10 -13 11 -11 8 16 -3 21 1 33 11 37 8 3 14 10 14 16 0 6 -4
9 -9 6 -5 -4 -11 -1 -13 6 -5 14 -31 18 -49 8z m31 -10 c0 13 1 13 10 0 5 -9
5 -19 -1 -27 -6 -7 -8 -16 -5 -21 3 -5 -1 -9 -8 -9 -8 0 -12 6 -9 14 3 7 -2
16 -11 19 -9 3 -16 10 -16 16 0 5 5 6 10 3 6 -3 10 0 10 7 0 9 3 9 10 -2 9
-13 10 -13 10 0z"/>
<path d="M106 1708 c3 -5 10 -6 15 -3 13 9 11 12 -6 12 -8 0 -12 -4 -9 -9z"/>
<path d="M55 1510 c3 -5 8 -10 11 -10 2 0 4 5 4 10 0 6 -5 10 -11 10 -5 0 -7
-4 -4 -10z"/>
<path d="M59 1187 c0 -1 -2 -10 -4 -20 -3 -15 -1 -16 13 -5 9 7 18 13 20 14 2
1 -4 4 -13 7 -8 4 -15 5 -16 4z"/>
<path d="M2894 1072 c3 -5 0 -13 -6 -15 -9 -4 -10 -6 -1 -6 17 -1 25 16 12 25
-7 4 -9 3 -5 -4z"/>
<path d="M2876 1023 c-6 -14 -5 -15 5 -6 7 7 10 15 7 18 -3 3 -9 -2 -12 -12z"/>
<path d="M2830 988 c0 -4 4 -8 9 -8 6 0 12 4 15 8 3 5 -1 9 -9 9 -8 0 -15 -4
-15 -9z"/>
<path d="M2781 974 c0 -11 3 -14 6 -6 3 7 2 16 -1 19 -3 4 -6 -2 -5 -13z"/>
<path d="M70 808 c0 -6 3 -8 7 -5 3 4 13 1 22 -6 14 -11 14 -10 2 6 -15 20
-31 22 -31 5z"/>
<path d="M2560 775 c-6 -8 -19 -11 -27 -8 -11 4 -14 3 -9 -6 4 -6 2 -18 -4
-26 -10 -12 -9 -15 6 -16 11 -1 22 -1 27 0 4 1 5 -12 2 -29 -3 -16 -2 -30 3
-30 4 0 9 11 10 25 3 48 5 54 20 60 10 3 12 0 9 -10 -4 -8 -2 -17 2 -19 5 -3
8 5 7 17 -1 16 -7 21 -21 19 -19 -2 -19 -2 -2 12 15 11 15 15 3 19 -8 3 -20 0
-26 -8z m11 -8 c-6 -8 -9 -16 -7 -18 2 -2 -2 -10 -10 -17 -21 -19 -18 7 3 30
19 21 31 25 14 5z"/>
<path d="M2655 779 c-4 -6 -5 -12 -2 -15 2 -3 7 2 10 11 7 17 1 20 -8 4z"/>
<path d="M2610 772 c0 -5 7 -9 15 -9 8 0 12 4 9 9 -3 4 -9 8 -15 8 -5 0 -9 -4
-9 -8z"/>
<path d="M180 714 c0 -1 8 -8 17 -15 9 -8 14 -9 10 -2 -4 6 -1 13 5 16 7 3 3
4 -9 4 -13 -1 -23 -2 -23 -3z"/>
<path d="M223 690 c-9 -14 -10 -21 -1 -26 7 -4 8 -3 4 5 -4 6 0 14 8 17 9 3
16 10 16 15 0 15 -15 10 -27 -11z"/>
<path d="M2580 696 c0 -2 8 -10 18 -17 15 -13 16 -12 3 4 -13 16 -21 21 -21
13z"/>
<path d="M339 644 c-10 -13 -10 -17 2 -24 11 -7 11 -12 1 -22 -9 -9 -12 -9
-12 1 0 7 -5 9 -11 5 -8 -4 -7 -9 2 -15 8 -4 19 -3 28 4 7 6 19 12 25 13 40 4
40 3 23 22 -10 10 -14 22 -10 25 3 4 1 7 -5 7 -7 0 -12 -4 -12 -10 0 -5 -5
-10 -11 -10 -5 0 -7 5 -4 10 10 16 -1 12 -16 -6z m38 -19 c1 -11 -17 -8 -30 4
-4 4 0 7 10 6 10 0 19 -5 20 -10z"/>
<path d="M350 556 c0 -2 9 -6 20 -9 11 -3 18 -1 14 4 -5 9 -34 13 -34 5z"/>
<path d="M396 533 c-6 -14 -5 -15 5 -6 7 7 10 15 7 18 -3 3 -9 -2 -12 -12z"/>
<path d="M356 532 c-3 -5 1 -9 9 -9 8 0 12 4 9 9 -3 4 -7 8 -9 8 -2 0 -6 -4
-9 -8z"/>
<path d="M416 507 c3 -10 9 -15 12 -12 3 3 0 11 -7 18 -10 9 -11 8 -5 -6z"/>
<path d="M2490 511 c0 -6 4 -13 10 -16 6 -3 7 1 4 9 -7 18 -14 21 -14 7z"/>
<path d="M431 437 c-13 -21 -12 -21 5 -5 10 10 16 20 13 22 -3 3 -11 -5 -18
-17z"/>
<path d="M490 415 c0 -5 5 -17 10 -25 5 -8 10 -10 10 -5 0 6 -5 17 -10 25 -5
8 -10 11 -10 5z"/>
<path d="M630 390 c6 -11 13 -20 16 -20 2 0 0 9 -6 20 -6 11 -13 20 -16 20 -2
0 0 -9 6 -20z"/>
<path d="M573 315 c0 -8 4 -12 9 -9 5 3 6 10 3 15 -9 13 -12 11 -12 -6z"/>
<path d="M626 321 c-3 -4 4 -17 15 -27 18 -16 19 -16 13 -1 -3 9 -10 17 -16
17 -5 0 -6 5 -3 10 3 6 4 10 1 10 -3 0 -7 -4 -10 -9z"/>
<path d="M753 286 c10 -8 15 -20 11 -30 -6 -17 20 -24 30 -8 7 11 -31 52 -47
52 -7 0 -4 -6 6 -14z"/>
<path d="M2294 268 c-4 -7 -4 -10 1 -6 4 4 15 2 24 -5 14 -11 14 -10 2 6 -16
20 -18 21 -27 5z"/>
<path d="M2295 239 c-4 -6 -5 -12 -2 -15 2 -3 7 2 10 11 7 17 1 20 -8 4z"/>
<path d="M693 225 c0 -8 4 -12 9 -9 5 3 6 10 3 15 -9 13 -12 11 -12 -6z"/>
<path d="M2242 214 c-7 -8 -8 -14 -3 -14 10 0 25 19 20 25 -2 1 -10 -3 -17
-11z"/>
<path d="M1904 208 c-3 -4 -2 -8 3 -9 4 0 16 -2 25 -4 10 -2 15 2 12 9 -5 14
-32 17 -40 4z"/>
<path d="M870 174 c0 -8 5 -12 10 -9 6 3 10 10 10 16 0 5 -4 9 -10 9 -5 0 -10
-7 -10 -16z"/>
<path d="M2229 173 c-13 -16 -12 -17 4 -4 16 13 21 21 13 21 -2 0 -10 -8 -17
-17z"/>
<path d="M770 165 c0 -8 2 -15 4 -15 2 0 6 7 10 15 3 8 1 15 -4 15 -6 0 -10
-7 -10 -15z"/>
<path d="M2066 164 c-11 -8 -16 -14 -10 -14 13 0 39 18 34 24 -3 2 -14 -2 -24
-10z"/>
<path d="M2108 153 c6 -2 18 -2 25 0 6 3 1 5 -13 5 -14 0 -19 -2 -12 -5z"/>
<path d="M2013 132 c2 -12 6 -24 10 -28 3 -4 4 4 2 16 -6 30 -16 40 -12 12z"/>
<path d="M780 134 c0 -1 8 -8 17 -15 9 -8 14 -9 10 -2 -4 6 -1 13 5 16 7 3 3
4 -9 4 -13 -1 -23 -2 -23 -3z"/>
<path d="M1953 125 c0 -8 4 -12 9 -9 5 3 6 10 3 15 -9 13 -12 11 -12 -6z"/>
<path d="M2046 131 c-3 -4 4 -7 14 -6 27 2 33 10 10 12 -11 1 -22 -2 -24 -6z"/>
<path d="M826 113 c-6 -14 -5 -15 5 -6 7 7 10 15 7 18 -3 3 -9 -2 -12 -12z"/>
<path d="M1249 123 c-9 -2 -23 -18 -32 -36 -12 -22 -15 -25 -11 -8 4 17 2 22
-7 18 -8 -2 -12 -11 -10 -18 2 -8 3 -22 3 -31 0 -10 3 -20 9 -23 5 -4 6 2 2
11 -4 11 -3 15 4 11 6 -4 22 -2 35 3 22 10 22 10 -4 5 -20 -4 -26 -2 -22 8 6
16 34 18 51 5 7 -6 10 -15 6 -21 -3 -6 -1 -7 6 -3 9 6 9 11 0 22 -7 9 -8 14
-1 14 6 0 13 -4 17 -10 10 -16 37 1 32 21 -3 12 0 16 9 12 8 -3 12 -9 9 -13
-8 -14 16 -23 27 -12 8 8 8 15 0 25 -7 8 -9 17 -5 20 3 4 1 7 -5 7 -6 0 -14
-5 -17 -10 -5 -8 -11 -7 -20 0 -15 13 -35 6 -35 -12 0 -7 4 -7 13 0 10 8 13 6
14 -11 2 -17 0 -19 -7 -7 -9 13 -10 13 -10 0 0 -12 -2 -12 -9 -1 -6 9 -10 10
-16 2 -5 -9 -10 -9 -21 0 -11 9 -14 9 -14 -1 0 -8 -3 -11 -6 -7 -3 3 -3 11 1
17 5 8 10 8 20 0 10 -8 15 -8 20 0 9 15 -5 28 -26 23z m121 -34 c0 -5 -4 -9
-8 -9 -5 0 -9 7 -9 15 0 8 4 12 9 9 4 -3 8 -9 8 -15z"/>
<path d="M1070 110 c0 -19 5 -25 23 -27 23 -4 22 9 -3 25 -12 7 -20 8 -20 2z"/>
<path d="M1919 103 c-13 -16 -12 -17 4 -4 16 13 21 21 13 21 -2 0 -10 -8 -17
-17z"/>
<path d="M1748 103 c6 -2 9 -10 6 -15 -4 -7 -2 -8 5 -4 13 9 5 26 -12 25 -9 0
-8 -2 1 -6z"/>
<path d="M1540 90 c0 -5 5 -10 11 -10 5 0 8 -4 5 -8 -3 -5 1 -9 8 -9 11 0 12
4 3 19 -13 20 -27 24 -27 8z"/>
<path d="M1603 93 c-7 -2 -13 -9 -13 -15 0 -7 5 -7 13 1 8 6 17 8 20 4 4 -3 7
-1 7 5 0 13 -7 14 -27 5z"/>
<path d="M1679 83 c-12 -16 -12 -17 2 -5 9 7 25 10 35 6 16 -5 16 -4 4 5 -20
15 -25 14 -41 -6z"/>
<path d="M894 56 c1 -8 5 -18 8 -22 4 -3 5 1 4 10 -1 8 -5 18 -8 22 -4 3 -5
-1 -4 -10z"/>
<path d="M1313 50 c-31 -12 -29 -22 1 -10 13 5 27 6 30 3 3 -4 6 -1 6 5 0 14
-7 14 -37 2z"/>
<path d="M1360 56 c0 -2 7 -7 16 -10 8 -3 12 -2 9 4 -6 10 -25 14 -25 6z"/>
<path d="M1081 14 c0 -11 3 -14 6 -6 3 7 2 16 -1 19 -3 4 -6 -2 -5 -13z"/>
</g>
</svg>
